%TF.GenerationSoftware,KiCad,Pcbnew,(6.0.7)*%
%TF.CreationDate,2022-10-02T12:09:57-05:00*%
%TF.ProjectId,PidflightLapV2,50696466-6c69-4676-9874-4c617056322e,1.0*%
%TF.SameCoordinates,Original*%
%TF.FileFunction,Legend,Top*%
%TF.FilePolarity,Positive*%
%FSLAX46Y46*%
G04 Gerber Fmt 4.6, Leading zero omitted, Abs format (unit mm)*
G04 Created by KiCad (PCBNEW (6.0.7)) date 2022-10-02 12:09:57*
%MOMM*%
%LPD*%
G01*
G04 APERTURE LIST*
%ADD10C,0.150000*%
%ADD11C,0.120000*%
%ADD12C,0.200000*%
G04 APERTURE END LIST*
D10*
X36997047Y-168251142D02*
X36949428Y-168298761D01*
X36806571Y-168346380D01*
X36711333Y-168346380D01*
X36568476Y-168298761D01*
X36473238Y-168203523D01*
X36425619Y-168108285D01*
X36378000Y-167917809D01*
X36378000Y-167774952D01*
X36425619Y-167584476D01*
X36473238Y-167489238D01*
X36568476Y-167394000D01*
X36711333Y-167346380D01*
X36806571Y-167346380D01*
X36949428Y-167394000D01*
X36997047Y-167441619D01*
X37425619Y-168251142D02*
X37473238Y-168298761D01*
X37425619Y-168346380D01*
X37378000Y-168298761D01*
X37425619Y-168251142D01*
X37425619Y-168346380D01*
X38997047Y-167822571D02*
X39139904Y-167870190D01*
X39187523Y-167917809D01*
X39235142Y-168013047D01*
X39235142Y-168155904D01*
X39187523Y-168251142D01*
X39139904Y-168298761D01*
X39044666Y-168346380D01*
X38663714Y-168346380D01*
X38663714Y-167346380D01*
X38997047Y-167346380D01*
X39092285Y-167394000D01*
X39139904Y-167441619D01*
X39187523Y-167536857D01*
X39187523Y-167632095D01*
X39139904Y-167727333D01*
X39092285Y-167774952D01*
X38997047Y-167822571D01*
X38663714Y-167822571D01*
X40092285Y-167679714D02*
X40092285Y-168346380D01*
X39663714Y-167679714D02*
X39663714Y-168203523D01*
X39711333Y-168298761D01*
X39806571Y-168346380D01*
X39949428Y-168346380D01*
X40044666Y-168298761D01*
X40092285Y-168251142D01*
X40568476Y-167679714D02*
X40568476Y-168346380D01*
X40568476Y-167774952D02*
X40616095Y-167727333D01*
X40711333Y-167679714D01*
X40854190Y-167679714D01*
X40949428Y-167727333D01*
X40997047Y-167822571D01*
X40997047Y-168346380D01*
X41854190Y-168298761D02*
X41758952Y-168346380D01*
X41568476Y-168346380D01*
X41473238Y-168298761D01*
X41425619Y-168203523D01*
X41425619Y-167822571D01*
X41473238Y-167727333D01*
X41568476Y-167679714D01*
X41758952Y-167679714D01*
X41854190Y-167727333D01*
X41901809Y-167822571D01*
X41901809Y-167917809D01*
X41425619Y-168013047D01*
X42187523Y-167679714D02*
X42568476Y-167679714D01*
X42330380Y-167346380D02*
X42330380Y-168203523D01*
X42378000Y-168298761D01*
X42473238Y-168346380D01*
X42568476Y-168346380D01*
X43330380Y-168346380D02*
X43330380Y-167822571D01*
X43282761Y-167727333D01*
X43187523Y-167679714D01*
X42997047Y-167679714D01*
X42901809Y-167727333D01*
X43330380Y-168298761D02*
X43235142Y-168346380D01*
X42997047Y-168346380D01*
X42901809Y-168298761D01*
X42854190Y-168203523D01*
X42854190Y-168108285D01*
X42901809Y-168013047D01*
X42997047Y-167965428D01*
X43235142Y-167965428D01*
X43330380Y-167917809D01*
X163631619Y-104100571D02*
X164107809Y-103767238D01*
X163631619Y-103529142D02*
X164631619Y-103529142D01*
X164631619Y-103910095D01*
X164584000Y-104005333D01*
X164536380Y-104052952D01*
X164441142Y-104100571D01*
X164298285Y-104100571D01*
X164203047Y-104052952D01*
X164155428Y-104005333D01*
X164107809Y-103910095D01*
X164107809Y-103529142D01*
X164631619Y-104433904D02*
X163631619Y-105100571D01*
X164631619Y-105100571D02*
X163631619Y-104433904D01*
X164631619Y-105957714D02*
X164631619Y-105481523D01*
X164155428Y-105433904D01*
X164203047Y-105481523D01*
X164250666Y-105576761D01*
X164250666Y-105814857D01*
X164203047Y-105910095D01*
X164155428Y-105957714D01*
X164060190Y-106005333D01*
X163822095Y-106005333D01*
X163726857Y-105957714D01*
X163679238Y-105910095D01*
X163631619Y-105814857D01*
X163631619Y-105576761D01*
X163679238Y-105481523D01*
X163726857Y-105433904D01*
X164203047Y-106576761D02*
X164250666Y-106481523D01*
X164298285Y-106433904D01*
X164393523Y-106386285D01*
X164441142Y-106386285D01*
X164536380Y-106433904D01*
X164584000Y-106481523D01*
X164631619Y-106576761D01*
X164631619Y-106767238D01*
X164584000Y-106862476D01*
X164536380Y-106910095D01*
X164441142Y-106957714D01*
X164393523Y-106957714D01*
X164298285Y-106910095D01*
X164250666Y-106862476D01*
X164203047Y-106767238D01*
X164203047Y-106576761D01*
X164155428Y-106481523D01*
X164107809Y-106433904D01*
X164012571Y-106386285D01*
X163822095Y-106386285D01*
X163726857Y-106433904D01*
X163679238Y-106481523D01*
X163631619Y-106576761D01*
X163631619Y-106767238D01*
X163679238Y-106862476D01*
X163726857Y-106910095D01*
X163822095Y-106957714D01*
X164012571Y-106957714D01*
X164107809Y-106910095D01*
X164155428Y-106862476D01*
X164203047Y-106767238D01*
X164631619Y-107576761D02*
X164631619Y-107672000D01*
X164584000Y-107767238D01*
X164536380Y-107814857D01*
X164441142Y-107862476D01*
X164250666Y-107910095D01*
X164012571Y-107910095D01*
X163822095Y-107862476D01*
X163726857Y-107814857D01*
X163679238Y-107767238D01*
X163631619Y-107672000D01*
X163631619Y-107576761D01*
X163679238Y-107481523D01*
X163726857Y-107433904D01*
X163822095Y-107386285D01*
X164012571Y-107338666D01*
X164250666Y-107338666D01*
X164441142Y-107386285D01*
X164536380Y-107433904D01*
X164584000Y-107481523D01*
X164631619Y-107576761D01*
X164203047Y-108481523D02*
X164250666Y-108386285D01*
X164298285Y-108338666D01*
X164393523Y-108291047D01*
X164441142Y-108291047D01*
X164536380Y-108338666D01*
X164584000Y-108386285D01*
X164631619Y-108481523D01*
X164631619Y-108672000D01*
X164584000Y-108767238D01*
X164536380Y-108814857D01*
X164441142Y-108862476D01*
X164393523Y-108862476D01*
X164298285Y-108814857D01*
X164250666Y-108767238D01*
X164203047Y-108672000D01*
X164203047Y-108481523D01*
X164155428Y-108386285D01*
X164107809Y-108338666D01*
X164012571Y-108291047D01*
X163822095Y-108291047D01*
X163726857Y-108338666D01*
X163679238Y-108386285D01*
X163631619Y-108481523D01*
X163631619Y-108672000D01*
X163679238Y-108767238D01*
X163726857Y-108814857D01*
X163822095Y-108862476D01*
X164012571Y-108862476D01*
X164107809Y-108814857D01*
X164155428Y-108767238D01*
X164203047Y-108672000D01*
X144653047Y-152217428D02*
X145414952Y-152217428D01*
X145034000Y-152598380D02*
X145034000Y-151836476D01*
X53141619Y-104354571D02*
X53617809Y-104021238D01*
X53141619Y-103783142D02*
X54141619Y-103783142D01*
X54141619Y-104164095D01*
X54094000Y-104259333D01*
X54046380Y-104306952D01*
X53951142Y-104354571D01*
X53808285Y-104354571D01*
X53713047Y-104306952D01*
X53665428Y-104259333D01*
X53617809Y-104164095D01*
X53617809Y-103783142D01*
X54141619Y-104687904D02*
X53141619Y-105354571D01*
X54141619Y-105354571D02*
X53141619Y-104687904D01*
X54141619Y-106211714D02*
X54141619Y-105735523D01*
X53665428Y-105687904D01*
X53713047Y-105735523D01*
X53760666Y-105830761D01*
X53760666Y-106068857D01*
X53713047Y-106164095D01*
X53665428Y-106211714D01*
X53570190Y-106259333D01*
X53332095Y-106259333D01*
X53236857Y-106211714D01*
X53189238Y-106164095D01*
X53141619Y-106068857D01*
X53141619Y-105830761D01*
X53189238Y-105735523D01*
X53236857Y-105687904D01*
X53713047Y-106830761D02*
X53760666Y-106735523D01*
X53808285Y-106687904D01*
X53903523Y-106640285D01*
X53951142Y-106640285D01*
X54046380Y-106687904D01*
X54094000Y-106735523D01*
X54141619Y-106830761D01*
X54141619Y-107021238D01*
X54094000Y-107116476D01*
X54046380Y-107164095D01*
X53951142Y-107211714D01*
X53903523Y-107211714D01*
X53808285Y-107164095D01*
X53760666Y-107116476D01*
X53713047Y-107021238D01*
X53713047Y-106830761D01*
X53665428Y-106735523D01*
X53617809Y-106687904D01*
X53522571Y-106640285D01*
X53332095Y-106640285D01*
X53236857Y-106687904D01*
X53189238Y-106735523D01*
X53141619Y-106830761D01*
X53141619Y-107021238D01*
X53189238Y-107116476D01*
X53236857Y-107164095D01*
X53332095Y-107211714D01*
X53522571Y-107211714D01*
X53617809Y-107164095D01*
X53665428Y-107116476D01*
X53713047Y-107021238D01*
X54141619Y-107830761D02*
X54141619Y-107926000D01*
X54094000Y-108021238D01*
X54046380Y-108068857D01*
X53951142Y-108116476D01*
X53760666Y-108164095D01*
X53522571Y-108164095D01*
X53332095Y-108116476D01*
X53236857Y-108068857D01*
X53189238Y-108021238D01*
X53141619Y-107926000D01*
X53141619Y-107830761D01*
X53189238Y-107735523D01*
X53236857Y-107687904D01*
X53332095Y-107640285D01*
X53522571Y-107592666D01*
X53760666Y-107592666D01*
X53951142Y-107640285D01*
X54046380Y-107687904D01*
X54094000Y-107735523D01*
X54141619Y-107830761D01*
X53713047Y-108735523D02*
X53760666Y-108640285D01*
X53808285Y-108592666D01*
X53903523Y-108545047D01*
X53951142Y-108545047D01*
X54046380Y-108592666D01*
X54094000Y-108640285D01*
X54141619Y-108735523D01*
X54141619Y-108926000D01*
X54094000Y-109021238D01*
X54046380Y-109068857D01*
X53951142Y-109116476D01*
X53903523Y-109116476D01*
X53808285Y-109068857D01*
X53760666Y-109021238D01*
X53713047Y-108926000D01*
X53713047Y-108735523D01*
X53665428Y-108640285D01*
X53617809Y-108592666D01*
X53522571Y-108545047D01*
X53332095Y-108545047D01*
X53236857Y-108592666D01*
X53189238Y-108640285D01*
X53141619Y-108735523D01*
X53141619Y-108926000D01*
X53189238Y-109021238D01*
X53236857Y-109068857D01*
X53332095Y-109116476D01*
X53522571Y-109116476D01*
X53617809Y-109068857D01*
X53665428Y-109021238D01*
X53713047Y-108926000D01*
X105846571Y-32154571D02*
X105894190Y-32011714D01*
X105941809Y-31964095D01*
X106037047Y-31916476D01*
X106179904Y-31916476D01*
X106275142Y-31964095D01*
X106322761Y-32011714D01*
X106370380Y-32106952D01*
X106370380Y-32487904D01*
X105370380Y-32487904D01*
X105370380Y-32154571D01*
X105418000Y-32059333D01*
X105465619Y-32011714D01*
X105560857Y-31964095D01*
X105656095Y-31964095D01*
X105751333Y-32011714D01*
X105798952Y-32059333D01*
X105846571Y-32154571D01*
X105846571Y-32487904D01*
X105703714Y-31059333D02*
X106370380Y-31059333D01*
X105703714Y-31487904D02*
X106227523Y-31487904D01*
X106322761Y-31440285D01*
X106370380Y-31345047D01*
X106370380Y-31202190D01*
X106322761Y-31106952D01*
X106275142Y-31059333D01*
X105703714Y-30678380D02*
X105703714Y-30154571D01*
X106370380Y-30678380D01*
X106370380Y-30154571D01*
X105703714Y-29868857D02*
X105703714Y-29345047D01*
X106370380Y-29868857D01*
X106370380Y-29345047D01*
X106322761Y-28583142D02*
X106370380Y-28678380D01*
X106370380Y-28868857D01*
X106322761Y-28964095D01*
X106227523Y-29011714D01*
X105846571Y-29011714D01*
X105751333Y-28964095D01*
X105703714Y-28868857D01*
X105703714Y-28678380D01*
X105751333Y-28583142D01*
X105846571Y-28535523D01*
X105941809Y-28535523D01*
X106037047Y-29011714D01*
X106370380Y-28106952D02*
X105703714Y-28106952D01*
X105894190Y-28106952D02*
X105798952Y-28059333D01*
X105751333Y-28011714D01*
X105703714Y-27916476D01*
X105703714Y-27821238D01*
X31916952Y-135072380D02*
X31916952Y-134072380D01*
X31916952Y-134548571D02*
X32488380Y-134548571D01*
X32488380Y-135072380D02*
X32488380Y-134072380D01*
X33536000Y-134977142D02*
X33488380Y-135024761D01*
X33345523Y-135072380D01*
X33250285Y-135072380D01*
X33107428Y-135024761D01*
X33012190Y-134929523D01*
X32964571Y-134834285D01*
X32916952Y-134643809D01*
X32916952Y-134500952D01*
X32964571Y-134310476D01*
X33012190Y-134215238D01*
X33107428Y-134120000D01*
X33250285Y-134072380D01*
X33345523Y-134072380D01*
X33488380Y-134120000D01*
X33536000Y-134167619D01*
X33726476Y-135167619D02*
X34488380Y-135167619D01*
X34916952Y-134072380D02*
X35012190Y-134072380D01*
X35107428Y-134120000D01*
X35155047Y-134167619D01*
X35202666Y-134262857D01*
X35250285Y-134453333D01*
X35250285Y-134691428D01*
X35202666Y-134881904D01*
X35155047Y-134977142D01*
X35107428Y-135024761D01*
X35012190Y-135072380D01*
X34916952Y-135072380D01*
X34821714Y-135024761D01*
X34774095Y-134977142D01*
X34726476Y-134881904D01*
X34678857Y-134691428D01*
X34678857Y-134453333D01*
X34726476Y-134262857D01*
X34774095Y-134167619D01*
X34821714Y-134120000D01*
X34916952Y-134072380D01*
X36107428Y-134072380D02*
X35916952Y-134072380D01*
X35821714Y-134120000D01*
X35774095Y-134167619D01*
X35678857Y-134310476D01*
X35631238Y-134500952D01*
X35631238Y-134881904D01*
X35678857Y-134977142D01*
X35726476Y-135024761D01*
X35821714Y-135072380D01*
X36012190Y-135072380D01*
X36107428Y-135024761D01*
X36155047Y-134977142D01*
X36202666Y-134881904D01*
X36202666Y-134643809D01*
X36155047Y-134548571D01*
X36107428Y-134500952D01*
X36012190Y-134453333D01*
X35821714Y-134453333D01*
X35726476Y-134500952D01*
X35678857Y-134548571D01*
X35631238Y-134643809D01*
X144454571Y-32408571D02*
X144502190Y-32265714D01*
X144549809Y-32218095D01*
X144645047Y-32170476D01*
X144787904Y-32170476D01*
X144883142Y-32218095D01*
X144930761Y-32265714D01*
X144978380Y-32360952D01*
X144978380Y-32741904D01*
X143978380Y-32741904D01*
X143978380Y-32408571D01*
X144026000Y-32313333D01*
X144073619Y-32265714D01*
X144168857Y-32218095D01*
X144264095Y-32218095D01*
X144359333Y-32265714D01*
X144406952Y-32313333D01*
X144454571Y-32408571D01*
X144454571Y-32741904D01*
X144311714Y-31313333D02*
X144978380Y-31313333D01*
X144311714Y-31741904D02*
X144835523Y-31741904D01*
X144930761Y-31694285D01*
X144978380Y-31599047D01*
X144978380Y-31456190D01*
X144930761Y-31360952D01*
X144883142Y-31313333D01*
X144311714Y-30932380D02*
X144311714Y-30408571D01*
X144978380Y-30932380D01*
X144978380Y-30408571D01*
X144311714Y-30122857D02*
X144311714Y-29599047D01*
X144978380Y-30122857D01*
X144978380Y-29599047D01*
X144930761Y-28837142D02*
X144978380Y-28932380D01*
X144978380Y-29122857D01*
X144930761Y-29218095D01*
X144835523Y-29265714D01*
X144454571Y-29265714D01*
X144359333Y-29218095D01*
X144311714Y-29122857D01*
X144311714Y-28932380D01*
X144359333Y-28837142D01*
X144454571Y-28789523D01*
X144549809Y-28789523D01*
X144645047Y-29265714D01*
X144978380Y-28360952D02*
X144311714Y-28360952D01*
X144502190Y-28360952D02*
X144406952Y-28313333D01*
X144359333Y-28265714D01*
X144311714Y-28170476D01*
X144311714Y-28075238D01*
X103544666Y-83343142D02*
X103544666Y-82866952D01*
X103830380Y-83438380D02*
X102830380Y-83105047D01*
X103830380Y-82771714D01*
X103830380Y-82438380D02*
X103163714Y-82438380D01*
X103354190Y-82438380D02*
X103258952Y-82390761D01*
X103211333Y-82343142D01*
X103163714Y-82247904D01*
X103163714Y-82152666D01*
X103830380Y-81390761D02*
X102830380Y-81390761D01*
X103782761Y-81390761D02*
X103830380Y-81486000D01*
X103830380Y-81676476D01*
X103782761Y-81771714D01*
X103735142Y-81819333D01*
X103639904Y-81866952D01*
X103354190Y-81866952D01*
X103258952Y-81819333D01*
X103211333Y-81771714D01*
X103163714Y-81676476D01*
X103163714Y-81486000D01*
X103211333Y-81390761D01*
X103163714Y-80486000D02*
X103830380Y-80486000D01*
X103163714Y-80914571D02*
X103687523Y-80914571D01*
X103782761Y-80866952D01*
X103830380Y-80771714D01*
X103830380Y-80628857D01*
X103782761Y-80533619D01*
X103735142Y-80486000D01*
X103830380Y-80009809D02*
X103163714Y-80009809D01*
X102830380Y-80009809D02*
X102878000Y-80057428D01*
X102925619Y-80009809D01*
X102878000Y-79962190D01*
X102830380Y-80009809D01*
X102925619Y-80009809D01*
X103163714Y-79533619D02*
X103830380Y-79533619D01*
X103258952Y-79533619D02*
X103211333Y-79486000D01*
X103163714Y-79390761D01*
X103163714Y-79247904D01*
X103211333Y-79152666D01*
X103306571Y-79105047D01*
X103830380Y-79105047D01*
X103830380Y-78486000D02*
X103782761Y-78581238D01*
X103735142Y-78628857D01*
X103639904Y-78676476D01*
X103354190Y-78676476D01*
X103258952Y-78628857D01*
X103211333Y-78581238D01*
X103163714Y-78486000D01*
X103163714Y-78343142D01*
X103211333Y-78247904D01*
X103258952Y-78200285D01*
X103354190Y-78152666D01*
X103639904Y-78152666D01*
X103735142Y-78200285D01*
X103782761Y-78247904D01*
X103830380Y-78343142D01*
X103830380Y-78486000D01*
X103830380Y-76962190D02*
X102830380Y-76962190D01*
X103830380Y-76390761D01*
X102830380Y-76390761D01*
X103830380Y-75486000D02*
X103306571Y-75486000D01*
X103211333Y-75533619D01*
X103163714Y-75628857D01*
X103163714Y-75819333D01*
X103211333Y-75914571D01*
X103782761Y-75486000D02*
X103830380Y-75581238D01*
X103830380Y-75819333D01*
X103782761Y-75914571D01*
X103687523Y-75962190D01*
X103592285Y-75962190D01*
X103497047Y-75914571D01*
X103449428Y-75819333D01*
X103449428Y-75581238D01*
X103401809Y-75486000D01*
X103163714Y-75009809D02*
X103830380Y-75009809D01*
X103258952Y-75009809D02*
X103211333Y-74962190D01*
X103163714Y-74866952D01*
X103163714Y-74724095D01*
X103211333Y-74628857D01*
X103306571Y-74581238D01*
X103830380Y-74581238D01*
X103830380Y-73962190D02*
X103782761Y-74057428D01*
X103735142Y-74105047D01*
X103639904Y-74152666D01*
X103354190Y-74152666D01*
X103258952Y-74105047D01*
X103211333Y-74057428D01*
X103163714Y-73962190D01*
X103163714Y-73819333D01*
X103211333Y-73724095D01*
X103258952Y-73676476D01*
X103354190Y-73628857D01*
X103639904Y-73628857D01*
X103735142Y-73676476D01*
X103782761Y-73724095D01*
X103830380Y-73819333D01*
X103830380Y-73962190D01*
X131953047Y-152217428D02*
X132714952Y-152217428D01*
X65444666Y-83343142D02*
X65444666Y-82866952D01*
X65730380Y-83438380D02*
X64730380Y-83105047D01*
X65730380Y-82771714D01*
X65730380Y-82438380D02*
X65063714Y-82438380D01*
X65254190Y-82438380D02*
X65158952Y-82390761D01*
X65111333Y-82343142D01*
X65063714Y-82247904D01*
X65063714Y-82152666D01*
X65730380Y-81390761D02*
X64730380Y-81390761D01*
X65682761Y-81390761D02*
X65730380Y-81486000D01*
X65730380Y-81676476D01*
X65682761Y-81771714D01*
X65635142Y-81819333D01*
X65539904Y-81866952D01*
X65254190Y-81866952D01*
X65158952Y-81819333D01*
X65111333Y-81771714D01*
X65063714Y-81676476D01*
X65063714Y-81486000D01*
X65111333Y-81390761D01*
X65063714Y-80486000D02*
X65730380Y-80486000D01*
X65063714Y-80914571D02*
X65587523Y-80914571D01*
X65682761Y-80866952D01*
X65730380Y-80771714D01*
X65730380Y-80628857D01*
X65682761Y-80533619D01*
X65635142Y-80486000D01*
X65730380Y-80009809D02*
X65063714Y-80009809D01*
X64730380Y-80009809D02*
X64778000Y-80057428D01*
X64825619Y-80009809D01*
X64778000Y-79962190D01*
X64730380Y-80009809D01*
X64825619Y-80009809D01*
X65063714Y-79533619D02*
X65730380Y-79533619D01*
X65158952Y-79533619D02*
X65111333Y-79486000D01*
X65063714Y-79390761D01*
X65063714Y-79247904D01*
X65111333Y-79152666D01*
X65206571Y-79105047D01*
X65730380Y-79105047D01*
X65730380Y-78486000D02*
X65682761Y-78581238D01*
X65635142Y-78628857D01*
X65539904Y-78676476D01*
X65254190Y-78676476D01*
X65158952Y-78628857D01*
X65111333Y-78581238D01*
X65063714Y-78486000D01*
X65063714Y-78343142D01*
X65111333Y-78247904D01*
X65158952Y-78200285D01*
X65254190Y-78152666D01*
X65539904Y-78152666D01*
X65635142Y-78200285D01*
X65682761Y-78247904D01*
X65730380Y-78343142D01*
X65730380Y-78486000D01*
X65730380Y-76962190D02*
X64730380Y-76962190D01*
X65730380Y-76390761D01*
X64730380Y-76390761D01*
X65730380Y-75486000D02*
X65206571Y-75486000D01*
X65111333Y-75533619D01*
X65063714Y-75628857D01*
X65063714Y-75819333D01*
X65111333Y-75914571D01*
X65682761Y-75486000D02*
X65730380Y-75581238D01*
X65730380Y-75819333D01*
X65682761Y-75914571D01*
X65587523Y-75962190D01*
X65492285Y-75962190D01*
X65397047Y-75914571D01*
X65349428Y-75819333D01*
X65349428Y-75581238D01*
X65301809Y-75486000D01*
X65063714Y-75009809D02*
X65730380Y-75009809D01*
X65158952Y-75009809D02*
X65111333Y-74962190D01*
X65063714Y-74866952D01*
X65063714Y-74724095D01*
X65111333Y-74628857D01*
X65206571Y-74581238D01*
X65730380Y-74581238D01*
X65730380Y-73962190D02*
X65682761Y-74057428D01*
X65635142Y-74105047D01*
X65539904Y-74152666D01*
X65254190Y-74152666D01*
X65158952Y-74105047D01*
X65111333Y-74057428D01*
X65063714Y-73962190D01*
X65063714Y-73819333D01*
X65111333Y-73724095D01*
X65158952Y-73676476D01*
X65254190Y-73628857D01*
X65539904Y-73628857D01*
X65635142Y-73676476D01*
X65682761Y-73724095D01*
X65730380Y-73819333D01*
X65730380Y-73962190D01*
X89717619Y-104100571D02*
X90193809Y-103767238D01*
X89717619Y-103529142D02*
X90717619Y-103529142D01*
X90717619Y-103910095D01*
X90670000Y-104005333D01*
X90622380Y-104052952D01*
X90527142Y-104100571D01*
X90384285Y-104100571D01*
X90289047Y-104052952D01*
X90241428Y-104005333D01*
X90193809Y-103910095D01*
X90193809Y-103529142D01*
X90717619Y-104433904D02*
X89717619Y-105100571D01*
X90717619Y-105100571D02*
X89717619Y-104433904D01*
X90717619Y-105957714D02*
X90717619Y-105481523D01*
X90241428Y-105433904D01*
X90289047Y-105481523D01*
X90336666Y-105576761D01*
X90336666Y-105814857D01*
X90289047Y-105910095D01*
X90241428Y-105957714D01*
X90146190Y-106005333D01*
X89908095Y-106005333D01*
X89812857Y-105957714D01*
X89765238Y-105910095D01*
X89717619Y-105814857D01*
X89717619Y-105576761D01*
X89765238Y-105481523D01*
X89812857Y-105433904D01*
X90289047Y-106576761D02*
X90336666Y-106481523D01*
X90384285Y-106433904D01*
X90479523Y-106386285D01*
X90527142Y-106386285D01*
X90622380Y-106433904D01*
X90670000Y-106481523D01*
X90717619Y-106576761D01*
X90717619Y-106767238D01*
X90670000Y-106862476D01*
X90622380Y-106910095D01*
X90527142Y-106957714D01*
X90479523Y-106957714D01*
X90384285Y-106910095D01*
X90336666Y-106862476D01*
X90289047Y-106767238D01*
X90289047Y-106576761D01*
X90241428Y-106481523D01*
X90193809Y-106433904D01*
X90098571Y-106386285D01*
X89908095Y-106386285D01*
X89812857Y-106433904D01*
X89765238Y-106481523D01*
X89717619Y-106576761D01*
X89717619Y-106767238D01*
X89765238Y-106862476D01*
X89812857Y-106910095D01*
X89908095Y-106957714D01*
X90098571Y-106957714D01*
X90193809Y-106910095D01*
X90241428Y-106862476D01*
X90289047Y-106767238D01*
X90717619Y-107576761D02*
X90717619Y-107672000D01*
X90670000Y-107767238D01*
X90622380Y-107814857D01*
X90527142Y-107862476D01*
X90336666Y-107910095D01*
X90098571Y-107910095D01*
X89908095Y-107862476D01*
X89812857Y-107814857D01*
X89765238Y-107767238D01*
X89717619Y-107672000D01*
X89717619Y-107576761D01*
X89765238Y-107481523D01*
X89812857Y-107433904D01*
X89908095Y-107386285D01*
X90098571Y-107338666D01*
X90336666Y-107338666D01*
X90527142Y-107386285D01*
X90622380Y-107433904D01*
X90670000Y-107481523D01*
X90717619Y-107576761D01*
X90289047Y-108481523D02*
X90336666Y-108386285D01*
X90384285Y-108338666D01*
X90479523Y-108291047D01*
X90527142Y-108291047D01*
X90622380Y-108338666D01*
X90670000Y-108386285D01*
X90717619Y-108481523D01*
X90717619Y-108672000D01*
X90670000Y-108767238D01*
X90622380Y-108814857D01*
X90527142Y-108862476D01*
X90479523Y-108862476D01*
X90384285Y-108814857D01*
X90336666Y-108767238D01*
X90289047Y-108672000D01*
X90289047Y-108481523D01*
X90241428Y-108386285D01*
X90193809Y-108338666D01*
X90098571Y-108291047D01*
X89908095Y-108291047D01*
X89812857Y-108338666D01*
X89765238Y-108386285D01*
X89717619Y-108481523D01*
X89717619Y-108672000D01*
X89765238Y-108767238D01*
X89812857Y-108814857D01*
X89908095Y-108862476D01*
X90098571Y-108862476D01*
X90193809Y-108814857D01*
X90241428Y-108767238D01*
X90289047Y-108672000D01*
X140120666Y-83343142D02*
X140120666Y-82866952D01*
X140406380Y-83438380D02*
X139406380Y-83105047D01*
X140406380Y-82771714D01*
X140406380Y-82438380D02*
X139739714Y-82438380D01*
X139930190Y-82438380D02*
X139834952Y-82390761D01*
X139787333Y-82343142D01*
X139739714Y-82247904D01*
X139739714Y-82152666D01*
X140406380Y-81390761D02*
X139406380Y-81390761D01*
X140358761Y-81390761D02*
X140406380Y-81486000D01*
X140406380Y-81676476D01*
X140358761Y-81771714D01*
X140311142Y-81819333D01*
X140215904Y-81866952D01*
X139930190Y-81866952D01*
X139834952Y-81819333D01*
X139787333Y-81771714D01*
X139739714Y-81676476D01*
X139739714Y-81486000D01*
X139787333Y-81390761D01*
X139739714Y-80486000D02*
X140406380Y-80486000D01*
X139739714Y-80914571D02*
X140263523Y-80914571D01*
X140358761Y-80866952D01*
X140406380Y-80771714D01*
X140406380Y-80628857D01*
X140358761Y-80533619D01*
X140311142Y-80486000D01*
X140406380Y-80009809D02*
X139739714Y-80009809D01*
X139406380Y-80009809D02*
X139454000Y-80057428D01*
X139501619Y-80009809D01*
X139454000Y-79962190D01*
X139406380Y-80009809D01*
X139501619Y-80009809D01*
X139739714Y-79533619D02*
X140406380Y-79533619D01*
X139834952Y-79533619D02*
X139787333Y-79486000D01*
X139739714Y-79390761D01*
X139739714Y-79247904D01*
X139787333Y-79152666D01*
X139882571Y-79105047D01*
X140406380Y-79105047D01*
X140406380Y-78486000D02*
X140358761Y-78581238D01*
X140311142Y-78628857D01*
X140215904Y-78676476D01*
X139930190Y-78676476D01*
X139834952Y-78628857D01*
X139787333Y-78581238D01*
X139739714Y-78486000D01*
X139739714Y-78343142D01*
X139787333Y-78247904D01*
X139834952Y-78200285D01*
X139930190Y-78152666D01*
X140215904Y-78152666D01*
X140311142Y-78200285D01*
X140358761Y-78247904D01*
X140406380Y-78343142D01*
X140406380Y-78486000D01*
X140406380Y-76962190D02*
X139406380Y-76962190D01*
X140406380Y-76390761D01*
X139406380Y-76390761D01*
X140406380Y-75486000D02*
X139882571Y-75486000D01*
X139787333Y-75533619D01*
X139739714Y-75628857D01*
X139739714Y-75819333D01*
X139787333Y-75914571D01*
X140358761Y-75486000D02*
X140406380Y-75581238D01*
X140406380Y-75819333D01*
X140358761Y-75914571D01*
X140263523Y-75962190D01*
X140168285Y-75962190D01*
X140073047Y-75914571D01*
X140025428Y-75819333D01*
X140025428Y-75581238D01*
X139977809Y-75486000D01*
X139739714Y-75009809D02*
X140406380Y-75009809D01*
X139834952Y-75009809D02*
X139787333Y-74962190D01*
X139739714Y-74866952D01*
X139739714Y-74724095D01*
X139787333Y-74628857D01*
X139882571Y-74581238D01*
X140406380Y-74581238D01*
X140406380Y-73962190D02*
X140358761Y-74057428D01*
X140311142Y-74105047D01*
X140215904Y-74152666D01*
X139930190Y-74152666D01*
X139834952Y-74105047D01*
X139787333Y-74057428D01*
X139739714Y-73962190D01*
X139739714Y-73819333D01*
X139787333Y-73724095D01*
X139834952Y-73676476D01*
X139930190Y-73628857D01*
X140215904Y-73628857D01*
X140311142Y-73676476D01*
X140358761Y-73724095D01*
X140406380Y-73819333D01*
X140406380Y-73962190D01*
X37266571Y-32154571D02*
X37314190Y-32011714D01*
X37361809Y-31964095D01*
X37457047Y-31916476D01*
X37599904Y-31916476D01*
X37695142Y-31964095D01*
X37742761Y-32011714D01*
X37790380Y-32106952D01*
X37790380Y-32487904D01*
X36790380Y-32487904D01*
X36790380Y-32154571D01*
X36838000Y-32059333D01*
X36885619Y-32011714D01*
X36980857Y-31964095D01*
X37076095Y-31964095D01*
X37171333Y-32011714D01*
X37218952Y-32059333D01*
X37266571Y-32154571D01*
X37266571Y-32487904D01*
X37123714Y-31059333D02*
X37790380Y-31059333D01*
X37123714Y-31487904D02*
X37647523Y-31487904D01*
X37742761Y-31440285D01*
X37790380Y-31345047D01*
X37790380Y-31202190D01*
X37742761Y-31106952D01*
X37695142Y-31059333D01*
X37123714Y-30678380D02*
X37123714Y-30154571D01*
X37790380Y-30678380D01*
X37790380Y-30154571D01*
X37123714Y-29868857D02*
X37123714Y-29345047D01*
X37790380Y-29868857D01*
X37790380Y-29345047D01*
X37742761Y-28583142D02*
X37790380Y-28678380D01*
X37790380Y-28868857D01*
X37742761Y-28964095D01*
X37647523Y-29011714D01*
X37266571Y-29011714D01*
X37171333Y-28964095D01*
X37123714Y-28868857D01*
X37123714Y-28678380D01*
X37171333Y-28583142D01*
X37266571Y-28535523D01*
X37361809Y-28535523D01*
X37457047Y-29011714D01*
X37790380Y-28106952D02*
X37123714Y-28106952D01*
X37314190Y-28106952D02*
X37218952Y-28059333D01*
X37171333Y-28011714D01*
X37123714Y-27916476D01*
X37123714Y-27821238D01*
X67746571Y-32154571D02*
X67794190Y-32011714D01*
X67841809Y-31964095D01*
X67937047Y-31916476D01*
X68079904Y-31916476D01*
X68175142Y-31964095D01*
X68222761Y-32011714D01*
X68270380Y-32106952D01*
X68270380Y-32487904D01*
X67270380Y-32487904D01*
X67270380Y-32154571D01*
X67318000Y-32059333D01*
X67365619Y-32011714D01*
X67460857Y-31964095D01*
X67556095Y-31964095D01*
X67651333Y-32011714D01*
X67698952Y-32059333D01*
X67746571Y-32154571D01*
X67746571Y-32487904D01*
X67603714Y-31059333D02*
X68270380Y-31059333D01*
X67603714Y-31487904D02*
X68127523Y-31487904D01*
X68222761Y-31440285D01*
X68270380Y-31345047D01*
X68270380Y-31202190D01*
X68222761Y-31106952D01*
X68175142Y-31059333D01*
X67603714Y-30678380D02*
X67603714Y-30154571D01*
X68270380Y-30678380D01*
X68270380Y-30154571D01*
X67603714Y-29868857D02*
X67603714Y-29345047D01*
X68270380Y-29868857D01*
X68270380Y-29345047D01*
X68222761Y-28583142D02*
X68270380Y-28678380D01*
X68270380Y-28868857D01*
X68222761Y-28964095D01*
X68127523Y-29011714D01*
X67746571Y-29011714D01*
X67651333Y-28964095D01*
X67603714Y-28868857D01*
X67603714Y-28678380D01*
X67651333Y-28583142D01*
X67746571Y-28535523D01*
X67841809Y-28535523D01*
X67937047Y-29011714D01*
X68270380Y-28106952D02*
X67603714Y-28106952D01*
X67794190Y-28106952D02*
X67698952Y-28059333D01*
X67651333Y-28011714D01*
X67603714Y-27916476D01*
X67603714Y-27821238D01*
X27090666Y-83597142D02*
X27090666Y-83120952D01*
X27376380Y-83692380D02*
X26376380Y-83359047D01*
X27376380Y-83025714D01*
X27376380Y-82692380D02*
X26709714Y-82692380D01*
X26900190Y-82692380D02*
X26804952Y-82644761D01*
X26757333Y-82597142D01*
X26709714Y-82501904D01*
X26709714Y-82406666D01*
X27376380Y-81644761D02*
X26376380Y-81644761D01*
X27328761Y-81644761D02*
X27376380Y-81740000D01*
X27376380Y-81930476D01*
X27328761Y-82025714D01*
X27281142Y-82073333D01*
X27185904Y-82120952D01*
X26900190Y-82120952D01*
X26804952Y-82073333D01*
X26757333Y-82025714D01*
X26709714Y-81930476D01*
X26709714Y-81740000D01*
X26757333Y-81644761D01*
X26709714Y-80740000D02*
X27376380Y-80740000D01*
X26709714Y-81168571D02*
X27233523Y-81168571D01*
X27328761Y-81120952D01*
X27376380Y-81025714D01*
X27376380Y-80882857D01*
X27328761Y-80787619D01*
X27281142Y-80740000D01*
X27376380Y-80263809D02*
X26709714Y-80263809D01*
X26376380Y-80263809D02*
X26424000Y-80311428D01*
X26471619Y-80263809D01*
X26424000Y-80216190D01*
X26376380Y-80263809D01*
X26471619Y-80263809D01*
X26709714Y-79787619D02*
X27376380Y-79787619D01*
X26804952Y-79787619D02*
X26757333Y-79740000D01*
X26709714Y-79644761D01*
X26709714Y-79501904D01*
X26757333Y-79406666D01*
X26852571Y-79359047D01*
X27376380Y-79359047D01*
X27376380Y-78740000D02*
X27328761Y-78835238D01*
X27281142Y-78882857D01*
X27185904Y-78930476D01*
X26900190Y-78930476D01*
X26804952Y-78882857D01*
X26757333Y-78835238D01*
X26709714Y-78740000D01*
X26709714Y-78597142D01*
X26757333Y-78501904D01*
X26804952Y-78454285D01*
X26900190Y-78406666D01*
X27185904Y-78406666D01*
X27281142Y-78454285D01*
X27328761Y-78501904D01*
X27376380Y-78597142D01*
X27376380Y-78740000D01*
X27376380Y-77216190D02*
X26376380Y-77216190D01*
X27376380Y-76644761D01*
X26376380Y-76644761D01*
X27376380Y-75740000D02*
X26852571Y-75740000D01*
X26757333Y-75787619D01*
X26709714Y-75882857D01*
X26709714Y-76073333D01*
X26757333Y-76168571D01*
X27328761Y-75740000D02*
X27376380Y-75835238D01*
X27376380Y-76073333D01*
X27328761Y-76168571D01*
X27233523Y-76216190D01*
X27138285Y-76216190D01*
X27043047Y-76168571D01*
X26995428Y-76073333D01*
X26995428Y-75835238D01*
X26947809Y-75740000D01*
X26709714Y-75263809D02*
X27376380Y-75263809D01*
X26804952Y-75263809D02*
X26757333Y-75216190D01*
X26709714Y-75120952D01*
X26709714Y-74978095D01*
X26757333Y-74882857D01*
X26852571Y-74835238D01*
X27376380Y-74835238D01*
X27376380Y-74216190D02*
X27328761Y-74311428D01*
X27281142Y-74359047D01*
X27185904Y-74406666D01*
X26900190Y-74406666D01*
X26804952Y-74359047D01*
X26757333Y-74311428D01*
X26709714Y-74216190D01*
X26709714Y-74073333D01*
X26757333Y-73978095D01*
X26804952Y-73930476D01*
X26900190Y-73882857D01*
X27185904Y-73882857D01*
X27281142Y-73930476D01*
X27328761Y-73978095D01*
X27376380Y-74073333D01*
X27376380Y-74216190D01*
X127563619Y-104100571D02*
X128039809Y-103767238D01*
X127563619Y-103529142D02*
X128563619Y-103529142D01*
X128563619Y-103910095D01*
X128516000Y-104005333D01*
X128468380Y-104052952D01*
X128373142Y-104100571D01*
X128230285Y-104100571D01*
X128135047Y-104052952D01*
X128087428Y-104005333D01*
X128039809Y-103910095D01*
X128039809Y-103529142D01*
X128563619Y-104433904D02*
X127563619Y-105100571D01*
X128563619Y-105100571D02*
X127563619Y-104433904D01*
X128563619Y-105957714D02*
X128563619Y-105481523D01*
X128087428Y-105433904D01*
X128135047Y-105481523D01*
X128182666Y-105576761D01*
X128182666Y-105814857D01*
X128135047Y-105910095D01*
X128087428Y-105957714D01*
X127992190Y-106005333D01*
X127754095Y-106005333D01*
X127658857Y-105957714D01*
X127611238Y-105910095D01*
X127563619Y-105814857D01*
X127563619Y-105576761D01*
X127611238Y-105481523D01*
X127658857Y-105433904D01*
X128135047Y-106576761D02*
X128182666Y-106481523D01*
X128230285Y-106433904D01*
X128325523Y-106386285D01*
X128373142Y-106386285D01*
X128468380Y-106433904D01*
X128516000Y-106481523D01*
X128563619Y-106576761D01*
X128563619Y-106767238D01*
X128516000Y-106862476D01*
X128468380Y-106910095D01*
X128373142Y-106957714D01*
X128325523Y-106957714D01*
X128230285Y-106910095D01*
X128182666Y-106862476D01*
X128135047Y-106767238D01*
X128135047Y-106576761D01*
X128087428Y-106481523D01*
X128039809Y-106433904D01*
X127944571Y-106386285D01*
X127754095Y-106386285D01*
X127658857Y-106433904D01*
X127611238Y-106481523D01*
X127563619Y-106576761D01*
X127563619Y-106767238D01*
X127611238Y-106862476D01*
X127658857Y-106910095D01*
X127754095Y-106957714D01*
X127944571Y-106957714D01*
X128039809Y-106910095D01*
X128087428Y-106862476D01*
X128135047Y-106767238D01*
X128563619Y-107576761D02*
X128563619Y-107672000D01*
X128516000Y-107767238D01*
X128468380Y-107814857D01*
X128373142Y-107862476D01*
X128182666Y-107910095D01*
X127944571Y-107910095D01*
X127754095Y-107862476D01*
X127658857Y-107814857D01*
X127611238Y-107767238D01*
X127563619Y-107672000D01*
X127563619Y-107576761D01*
X127611238Y-107481523D01*
X127658857Y-107433904D01*
X127754095Y-107386285D01*
X127944571Y-107338666D01*
X128182666Y-107338666D01*
X128373142Y-107386285D01*
X128468380Y-107433904D01*
X128516000Y-107481523D01*
X128563619Y-107576761D01*
X128135047Y-108481523D02*
X128182666Y-108386285D01*
X128230285Y-108338666D01*
X128325523Y-108291047D01*
X128373142Y-108291047D01*
X128468380Y-108338666D01*
X128516000Y-108386285D01*
X128563619Y-108481523D01*
X128563619Y-108672000D01*
X128516000Y-108767238D01*
X128468380Y-108814857D01*
X128373142Y-108862476D01*
X128325523Y-108862476D01*
X128230285Y-108814857D01*
X128182666Y-108767238D01*
X128135047Y-108672000D01*
X128135047Y-108481523D01*
X128087428Y-108386285D01*
X128039809Y-108338666D01*
X127944571Y-108291047D01*
X127754095Y-108291047D01*
X127658857Y-108338666D01*
X127611238Y-108386285D01*
X127563619Y-108481523D01*
X127563619Y-108672000D01*
X127611238Y-108767238D01*
X127658857Y-108814857D01*
X127754095Y-108862476D01*
X127944571Y-108862476D01*
X128039809Y-108814857D01*
X128087428Y-108767238D01*
X128135047Y-108672000D01*
%TO.C,BT1*%
X142298285Y-160367071D02*
X142441142Y-160414690D01*
X142488761Y-160462309D01*
X142536380Y-160557547D01*
X142536380Y-160700404D01*
X142488761Y-160795642D01*
X142441142Y-160843261D01*
X142345904Y-160890880D01*
X141964952Y-160890880D01*
X141964952Y-159890880D01*
X142298285Y-159890880D01*
X142393523Y-159938500D01*
X142441142Y-159986119D01*
X142488761Y-160081357D01*
X142488761Y-160176595D01*
X142441142Y-160271833D01*
X142393523Y-160319452D01*
X142298285Y-160367071D01*
X141964952Y-160367071D01*
X142822095Y-159890880D02*
X143393523Y-159890880D01*
X143107809Y-160890880D02*
X143107809Y-159890880D01*
X144250666Y-160890880D02*
X143679238Y-160890880D01*
X143964952Y-160890880D02*
X143964952Y-159890880D01*
X143869714Y-160033738D01*
X143774476Y-160128976D01*
X143679238Y-160176595D01*
%TO.C,REF\u002A\u002A*%
X157670666Y-156018380D02*
X157337333Y-155542190D01*
X157099238Y-156018380D02*
X157099238Y-155018380D01*
X157480190Y-155018380D01*
X157575428Y-155066000D01*
X157623047Y-155113619D01*
X157670666Y-155208857D01*
X157670666Y-155351714D01*
X157623047Y-155446952D01*
X157575428Y-155494571D01*
X157480190Y-155542190D01*
X157099238Y-155542190D01*
X158099238Y-155494571D02*
X158432571Y-155494571D01*
X158575428Y-156018380D02*
X158099238Y-156018380D01*
X158099238Y-155018380D01*
X158575428Y-155018380D01*
X159337333Y-155494571D02*
X159004000Y-155494571D01*
X159004000Y-156018380D02*
X159004000Y-155018380D01*
X159480190Y-155018380D01*
X160004000Y-155018380D02*
X160004000Y-155256476D01*
X159765904Y-155161238D02*
X160004000Y-155256476D01*
X160242095Y-155161238D01*
X159861142Y-155446952D02*
X160004000Y-155256476D01*
X160146857Y-155446952D01*
X160765904Y-155018380D02*
X160765904Y-155256476D01*
X160527809Y-155161238D02*
X160765904Y-155256476D01*
X161004000Y-155161238D01*
X160623047Y-155446952D02*
X160765904Y-155256476D01*
X160908761Y-155446952D01*
%TO.C,U9*%
X149352095Y-38568380D02*
X149352095Y-39377904D01*
X149399714Y-39473142D01*
X149447333Y-39520761D01*
X149542571Y-39568380D01*
X149733047Y-39568380D01*
X149828285Y-39520761D01*
X149875904Y-39473142D01*
X149923523Y-39377904D01*
X149923523Y-38568380D01*
X150447333Y-39568380D02*
X150637809Y-39568380D01*
X150733047Y-39520761D01*
X150780666Y-39473142D01*
X150875904Y-39330285D01*
X150923523Y-39139809D01*
X150923523Y-38758857D01*
X150875904Y-38663619D01*
X150828285Y-38616000D01*
X150733047Y-38568380D01*
X150542571Y-38568380D01*
X150447333Y-38616000D01*
X150399714Y-38663619D01*
X150352095Y-38758857D01*
X150352095Y-38996952D01*
X150399714Y-39092190D01*
X150447333Y-39139809D01*
X150542571Y-39187428D01*
X150733047Y-39187428D01*
X150828285Y-39139809D01*
X150875904Y-39092190D01*
X150923523Y-38996952D01*
%TO.C,1k2*%
X48985730Y-96993601D02*
X48985730Y-97565029D01*
X48985730Y-97279315D02*
X47985730Y-97279315D01*
X48128588Y-97374553D01*
X48223826Y-97469791D01*
X48271445Y-97565029D01*
X48985730Y-96565029D02*
X47985730Y-96565029D01*
X48604778Y-96469791D02*
X48985730Y-96184077D01*
X48319064Y-96184077D02*
X48700016Y-96565029D01*
X48080969Y-95803124D02*
X48033350Y-95755505D01*
X47985730Y-95660267D01*
X47985730Y-95422172D01*
X48033350Y-95326934D01*
X48080969Y-95279315D01*
X48176207Y-95231696D01*
X48271445Y-95231696D01*
X48414302Y-95279315D01*
X48985730Y-95850743D01*
X48985730Y-95231696D01*
%TO.C,U5*%
X74432095Y-38568380D02*
X74432095Y-39377904D01*
X74479714Y-39473142D01*
X74527333Y-39520761D01*
X74622571Y-39568380D01*
X74813047Y-39568380D01*
X74908285Y-39520761D01*
X74955904Y-39473142D01*
X75003523Y-39377904D01*
X75003523Y-38568380D01*
X75955904Y-38568380D02*
X75479714Y-38568380D01*
X75432095Y-39044571D01*
X75479714Y-38996952D01*
X75574952Y-38949333D01*
X75813047Y-38949333D01*
X75908285Y-38996952D01*
X75955904Y-39044571D01*
X76003523Y-39139809D01*
X76003523Y-39377904D01*
X75955904Y-39473142D01*
X75908285Y-39520761D01*
X75813047Y-39568380D01*
X75574952Y-39568380D01*
X75479714Y-39520761D01*
X75432095Y-39473142D01*
%TO.C,SW1*%
X108140666Y-151280761D02*
X108283523Y-151328380D01*
X108521619Y-151328380D01*
X108616857Y-151280761D01*
X108664476Y-151233142D01*
X108712095Y-151137904D01*
X108712095Y-151042666D01*
X108664476Y-150947428D01*
X108616857Y-150899809D01*
X108521619Y-150852190D01*
X108331142Y-150804571D01*
X108235904Y-150756952D01*
X108188285Y-150709333D01*
X108140666Y-150614095D01*
X108140666Y-150518857D01*
X108188285Y-150423619D01*
X108235904Y-150376000D01*
X108331142Y-150328380D01*
X108569238Y-150328380D01*
X108712095Y-150376000D01*
X109045428Y-150328380D02*
X109283523Y-151328380D01*
X109474000Y-150614095D01*
X109664476Y-151328380D01*
X109902571Y-150328380D01*
X110807333Y-151328380D02*
X110235904Y-151328380D01*
X110521619Y-151328380D02*
X110521619Y-150328380D01*
X110426380Y-150471238D01*
X110331142Y-150566476D01*
X110235904Y-150614095D01*
%TO.C,1k4*%
X83256380Y-96996232D02*
X83256380Y-97567660D01*
X83256380Y-97281946D02*
X82256380Y-97281946D01*
X82399238Y-97377184D01*
X82494476Y-97472422D01*
X82542095Y-97567660D01*
X83256380Y-96567660D02*
X82256380Y-96567660D01*
X82875428Y-96472422D02*
X83256380Y-96186708D01*
X82589714Y-96186708D02*
X82970666Y-96567660D01*
X82589714Y-95329565D02*
X83256380Y-95329565D01*
X82208761Y-95567660D02*
X82923047Y-95805755D01*
X82923047Y-95186708D01*
%TO.C,U6*%
X106051619Y-115824095D02*
X105242095Y-115824095D01*
X105146857Y-115871714D01*
X105099238Y-115919333D01*
X105051619Y-116014571D01*
X105051619Y-116205047D01*
X105099238Y-116300285D01*
X105146857Y-116347904D01*
X105242095Y-116395523D01*
X106051619Y-116395523D01*
X106051619Y-117300285D02*
X106051619Y-117109809D01*
X106004000Y-117014571D01*
X105956380Y-116966952D01*
X105813523Y-116871714D01*
X105623047Y-116824095D01*
X105242095Y-116824095D01*
X105146857Y-116871714D01*
X105099238Y-116919333D01*
X105051619Y-117014571D01*
X105051619Y-117205047D01*
X105099238Y-117300285D01*
X105146857Y-117347904D01*
X105242095Y-117395523D01*
X105480190Y-117395523D01*
X105575428Y-117347904D01*
X105623047Y-117300285D01*
X105670666Y-117205047D01*
X105670666Y-117014571D01*
X105623047Y-116919333D01*
X105575428Y-116871714D01*
X105480190Y-116824095D01*
%TO.C,B4*%
X143272571Y-30630761D02*
X143320190Y-30487904D01*
X143367809Y-30440285D01*
X143463047Y-30392666D01*
X143605904Y-30392666D01*
X143701142Y-30440285D01*
X143748761Y-30487904D01*
X143796380Y-30583142D01*
X143796380Y-30964095D01*
X142796380Y-30964095D01*
X142796380Y-30630761D01*
X142844000Y-30535523D01*
X142891619Y-30487904D01*
X142986857Y-30440285D01*
X143082095Y-30440285D01*
X143177333Y-30487904D01*
X143224952Y-30535523D01*
X143272571Y-30630761D01*
X143272571Y-30964095D01*
X143129714Y-29535523D02*
X143796380Y-29535523D01*
X142748761Y-29773619D02*
X143463047Y-30011714D01*
X143463047Y-29392666D01*
X138755428Y-26796952D02*
X138755428Y-26035047D01*
X139136380Y-26416000D02*
X138374476Y-26416000D01*
%TO.C,B3*%
X120412571Y-30630761D02*
X120460190Y-30487904D01*
X120507809Y-30440285D01*
X120603047Y-30392666D01*
X120745904Y-30392666D01*
X120841142Y-30440285D01*
X120888761Y-30487904D01*
X120936380Y-30583142D01*
X120936380Y-30964095D01*
X119936380Y-30964095D01*
X119936380Y-30630761D01*
X119984000Y-30535523D01*
X120031619Y-30487904D01*
X120126857Y-30440285D01*
X120222095Y-30440285D01*
X120317333Y-30487904D01*
X120364952Y-30535523D01*
X120412571Y-30630761D01*
X120412571Y-30964095D01*
X119936380Y-30059333D02*
X119936380Y-29440285D01*
X120317333Y-29773619D01*
X120317333Y-29630761D01*
X120364952Y-29535523D01*
X120412571Y-29487904D01*
X120507809Y-29440285D01*
X120745904Y-29440285D01*
X120841142Y-29487904D01*
X120888761Y-29535523D01*
X120936380Y-29630761D01*
X120936380Y-29916476D01*
X120888761Y-30011714D01*
X120841142Y-30059333D01*
X115895428Y-26796952D02*
X115895428Y-26035047D01*
X116276380Y-26416000D02*
X115514476Y-26416000D01*
%TO.C,1k12*%
X161996380Y-97337428D02*
X161996380Y-97908857D01*
X161996380Y-97623142D02*
X160996380Y-97623142D01*
X161139238Y-97718380D01*
X161234476Y-97813619D01*
X161282095Y-97908857D01*
X161996380Y-96908857D02*
X160996380Y-96908857D01*
X161615428Y-96813619D02*
X161996380Y-96527904D01*
X161329714Y-96527904D02*
X161710666Y-96908857D01*
X161996380Y-95575523D02*
X161996380Y-96146952D01*
X161996380Y-95861238D02*
X160996380Y-95861238D01*
X161139238Y-95956476D01*
X161234476Y-96051714D01*
X161282095Y-96146952D01*
X161091619Y-95194571D02*
X161044000Y-95146952D01*
X160996380Y-95051714D01*
X160996380Y-94813619D01*
X161044000Y-94718380D01*
X161091619Y-94670761D01*
X161186857Y-94623142D01*
X161282095Y-94623142D01*
X161424952Y-94670761D01*
X161996380Y-95242190D01*
X161996380Y-94623142D01*
%TO.C,1k11*%
X159456380Y-97337428D02*
X159456380Y-97908857D01*
X159456380Y-97623142D02*
X158456380Y-97623142D01*
X158599238Y-97718380D01*
X158694476Y-97813619D01*
X158742095Y-97908857D01*
X159456380Y-96908857D02*
X158456380Y-96908857D01*
X159075428Y-96813619D02*
X159456380Y-96527904D01*
X158789714Y-96527904D02*
X159170666Y-96908857D01*
X159456380Y-95575523D02*
X159456380Y-96146952D01*
X159456380Y-95861238D02*
X158456380Y-95861238D01*
X158599238Y-95956476D01*
X158694476Y-96051714D01*
X158742095Y-96146952D01*
X159456380Y-94623142D02*
X159456380Y-95194571D01*
X159456380Y-94908857D02*
X158456380Y-94908857D01*
X158599238Y-95004095D01*
X158694476Y-95099333D01*
X158742095Y-95194571D01*
%TO.C,REF\u002A\u002A*%
X28130666Y-26478380D02*
X27797333Y-26002190D01*
X27559238Y-26478380D02*
X27559238Y-25478380D01*
X27940190Y-25478380D01*
X28035428Y-25526000D01*
X28083047Y-25573619D01*
X28130666Y-25668857D01*
X28130666Y-25811714D01*
X28083047Y-25906952D01*
X28035428Y-25954571D01*
X27940190Y-26002190D01*
X27559238Y-26002190D01*
X28559238Y-25954571D02*
X28892571Y-25954571D01*
X29035428Y-26478380D02*
X28559238Y-26478380D01*
X28559238Y-25478380D01*
X29035428Y-25478380D01*
X29797333Y-25954571D02*
X29464000Y-25954571D01*
X29464000Y-26478380D02*
X29464000Y-25478380D01*
X29940190Y-25478380D01*
X30464000Y-25478380D02*
X30464000Y-25716476D01*
X30225904Y-25621238D02*
X30464000Y-25716476D01*
X30702095Y-25621238D01*
X30321142Y-25906952D02*
X30464000Y-25716476D01*
X30606857Y-25906952D01*
X31225904Y-25478380D02*
X31225904Y-25716476D01*
X30987809Y-25621238D02*
X31225904Y-25716476D01*
X31464000Y-25621238D01*
X31083047Y-25906952D02*
X31225904Y-25716476D01*
X31368761Y-25906952D01*
%TO.C,1k8*%
X123896380Y-96861238D02*
X123896380Y-97432666D01*
X123896380Y-97146952D02*
X122896380Y-97146952D01*
X123039238Y-97242190D01*
X123134476Y-97337428D01*
X123182095Y-97432666D01*
X123896380Y-96432666D02*
X122896380Y-96432666D01*
X123515428Y-96337428D02*
X123896380Y-96051714D01*
X123229714Y-96051714D02*
X123610666Y-96432666D01*
X123324952Y-95480285D02*
X123277333Y-95575523D01*
X123229714Y-95623142D01*
X123134476Y-95670761D01*
X123086857Y-95670761D01*
X122991619Y-95623142D01*
X122944000Y-95575523D01*
X122896380Y-95480285D01*
X122896380Y-95289809D01*
X122944000Y-95194571D01*
X122991619Y-95146952D01*
X123086857Y-95099333D01*
X123134476Y-95099333D01*
X123229714Y-95146952D01*
X123277333Y-95194571D01*
X123324952Y-95289809D01*
X123324952Y-95480285D01*
X123372571Y-95575523D01*
X123420190Y-95623142D01*
X123515428Y-95670761D01*
X123705904Y-95670761D01*
X123801142Y-95623142D01*
X123848761Y-95575523D01*
X123896380Y-95480285D01*
X123896380Y-95289809D01*
X123848761Y-95194571D01*
X123801142Y-95146952D01*
X123705904Y-95099333D01*
X123515428Y-95099333D01*
X123420190Y-95146952D01*
X123372571Y-95194571D01*
X123324952Y-95289809D01*
%TO.C,U7*%
X112522095Y-38568380D02*
X112522095Y-39377904D01*
X112569714Y-39473142D01*
X112617333Y-39520761D01*
X112712571Y-39568380D01*
X112903047Y-39568380D01*
X112998285Y-39520761D01*
X113045904Y-39473142D01*
X113093523Y-39377904D01*
X113093523Y-38568380D01*
X113474476Y-38568380D02*
X114141142Y-38568380D01*
X113712571Y-39568380D01*
%TO.C,1k1*%
X46445730Y-96993601D02*
X46445730Y-97565029D01*
X46445730Y-97279315D02*
X45445730Y-97279315D01*
X45588588Y-97374553D01*
X45683826Y-97469791D01*
X45731445Y-97565029D01*
X46445730Y-96565029D02*
X45445730Y-96565029D01*
X46064778Y-96469791D02*
X46445730Y-96184077D01*
X45779064Y-96184077D02*
X46160016Y-96565029D01*
X46445730Y-95231696D02*
X46445730Y-95803124D01*
X46445730Y-95517410D02*
X45445730Y-95517410D01*
X45588588Y-95612648D01*
X45683826Y-95707886D01*
X45731445Y-95803124D01*
%TO.C,REF\u002A\u002A*%
X28130666Y-156018380D02*
X27797333Y-155542190D01*
X27559238Y-156018380D02*
X27559238Y-155018380D01*
X27940190Y-155018380D01*
X28035428Y-155066000D01*
X28083047Y-155113619D01*
X28130666Y-155208857D01*
X28130666Y-155351714D01*
X28083047Y-155446952D01*
X28035428Y-155494571D01*
X27940190Y-155542190D01*
X27559238Y-155542190D01*
X28559238Y-155494571D02*
X28892571Y-155494571D01*
X29035428Y-156018380D02*
X28559238Y-156018380D01*
X28559238Y-155018380D01*
X29035428Y-155018380D01*
X29797333Y-155494571D02*
X29464000Y-155494571D01*
X29464000Y-156018380D02*
X29464000Y-155018380D01*
X29940190Y-155018380D01*
X30464000Y-155018380D02*
X30464000Y-155256476D01*
X30225904Y-155161238D02*
X30464000Y-155256476D01*
X30702095Y-155161238D01*
X30321142Y-155446952D02*
X30464000Y-155256476D01*
X30606857Y-155446952D01*
X31225904Y-155018380D02*
X31225904Y-155256476D01*
X30987809Y-155161238D02*
X31225904Y-155256476D01*
X31464000Y-155161238D01*
X31083047Y-155446952D02*
X31225904Y-155256476D01*
X31368761Y-155446952D01*
%TO.C,U2*%
X31361619Y-115824095D02*
X30552095Y-115824095D01*
X30456857Y-115871714D01*
X30409238Y-115919333D01*
X30361619Y-116014571D01*
X30361619Y-116205047D01*
X30409238Y-116300285D01*
X30456857Y-116347904D01*
X30552095Y-116395523D01*
X31361619Y-116395523D01*
X31266380Y-116824095D02*
X31314000Y-116871714D01*
X31361619Y-116966952D01*
X31361619Y-117205047D01*
X31314000Y-117300285D01*
X31266380Y-117347904D01*
X31171142Y-117395523D01*
X31075904Y-117395523D01*
X30933047Y-117347904D01*
X30361619Y-116776476D01*
X30361619Y-117395523D01*
%TO.C,1k7*%
X121356380Y-96861238D02*
X121356380Y-97432666D01*
X121356380Y-97146952D02*
X120356380Y-97146952D01*
X120499238Y-97242190D01*
X120594476Y-97337428D01*
X120642095Y-97432666D01*
X121356380Y-96432666D02*
X120356380Y-96432666D01*
X120975428Y-96337428D02*
X121356380Y-96051714D01*
X120689714Y-96051714D02*
X121070666Y-96432666D01*
X120356380Y-95718380D02*
X120356380Y-95051714D01*
X121356380Y-95480285D01*
%TO.C,U1*%
X48927095Y-138045880D02*
X48927095Y-138855404D01*
X48974714Y-138950642D01*
X49022333Y-138998261D01*
X49117571Y-139045880D01*
X49308047Y-139045880D01*
X49403285Y-138998261D01*
X49450904Y-138950642D01*
X49498523Y-138855404D01*
X49498523Y-138045880D01*
X50498523Y-139045880D02*
X49927095Y-139045880D01*
X50212809Y-139045880D02*
X50212809Y-138045880D01*
X50117571Y-138188738D01*
X50022333Y-138283976D01*
X49927095Y-138331595D01*
%TO.C,U3*%
X36322095Y-38568380D02*
X36322095Y-39377904D01*
X36369714Y-39473142D01*
X36417333Y-39520761D01*
X36512571Y-39568380D01*
X36703047Y-39568380D01*
X36798285Y-39520761D01*
X36845904Y-39473142D01*
X36893523Y-39377904D01*
X36893523Y-38568380D01*
X37274476Y-38568380D02*
X37893523Y-38568380D01*
X37560190Y-38949333D01*
X37703047Y-38949333D01*
X37798285Y-38996952D01*
X37845904Y-39044571D01*
X37893523Y-39139809D01*
X37893523Y-39377904D01*
X37845904Y-39473142D01*
X37798285Y-39520761D01*
X37703047Y-39568380D01*
X37417333Y-39568380D01*
X37322095Y-39520761D01*
X37274476Y-39473142D01*
%TO.C,1k10*%
X156916380Y-97337428D02*
X156916380Y-97908857D01*
X156916380Y-97623142D02*
X155916380Y-97623142D01*
X156059238Y-97718380D01*
X156154476Y-97813619D01*
X156202095Y-97908857D01*
X156916380Y-96908857D02*
X155916380Y-96908857D01*
X156535428Y-96813619D02*
X156916380Y-96527904D01*
X156249714Y-96527904D02*
X156630666Y-96908857D01*
X156916380Y-95575523D02*
X156916380Y-96146952D01*
X156916380Y-95861238D02*
X155916380Y-95861238D01*
X156059238Y-95956476D01*
X156154476Y-96051714D01*
X156202095Y-96146952D01*
X155916380Y-94956476D02*
X155916380Y-94861238D01*
X155964000Y-94766000D01*
X156011619Y-94718380D01*
X156106857Y-94670761D01*
X156297333Y-94623142D01*
X156535428Y-94623142D01*
X156725904Y-94670761D01*
X156821142Y-94718380D01*
X156868761Y-94766000D01*
X156916380Y-94861238D01*
X156916380Y-94956476D01*
X156868761Y-95051714D01*
X156821142Y-95099333D01*
X156725904Y-95146952D01*
X156535428Y-95194571D01*
X156297333Y-95194571D01*
X156106857Y-95146952D01*
X156011619Y-95099333D01*
X155964000Y-95051714D01*
X155916380Y-94956476D01*
%TO.C,1k3*%
X51525730Y-96993601D02*
X51525730Y-97565029D01*
X51525730Y-97279315D02*
X50525730Y-97279315D01*
X50668588Y-97374553D01*
X50763826Y-97469791D01*
X50811445Y-97565029D01*
X51525730Y-96565029D02*
X50525730Y-96565029D01*
X51144778Y-96469791D02*
X51525730Y-96184077D01*
X50859064Y-96184077D02*
X51240016Y-96565029D01*
X50525730Y-95850743D02*
X50525730Y-95231696D01*
X50906683Y-95565029D01*
X50906683Y-95422172D01*
X50954302Y-95326934D01*
X51001921Y-95279315D01*
X51097159Y-95231696D01*
X51335254Y-95231696D01*
X51430492Y-95279315D01*
X51478111Y-95326934D01*
X51525730Y-95422172D01*
X51525730Y-95707886D01*
X51478111Y-95803124D01*
X51430492Y-95850743D01*
%TO.C,U8*%
X141851619Y-115824095D02*
X141042095Y-115824095D01*
X140946857Y-115871714D01*
X140899238Y-115919333D01*
X140851619Y-116014571D01*
X140851619Y-116205047D01*
X140899238Y-116300285D01*
X140946857Y-116347904D01*
X141042095Y-116395523D01*
X141851619Y-116395523D01*
X141423047Y-117014571D02*
X141470666Y-116919333D01*
X141518285Y-116871714D01*
X141613523Y-116824095D01*
X141661142Y-116824095D01*
X141756380Y-116871714D01*
X141804000Y-116919333D01*
X141851619Y-117014571D01*
X141851619Y-117205047D01*
X141804000Y-117300285D01*
X141756380Y-117347904D01*
X141661142Y-117395523D01*
X141613523Y-117395523D01*
X141518285Y-117347904D01*
X141470666Y-117300285D01*
X141423047Y-117205047D01*
X141423047Y-117014571D01*
X141375428Y-116919333D01*
X141327809Y-116871714D01*
X141232571Y-116824095D01*
X141042095Y-116824095D01*
X140946857Y-116871714D01*
X140899238Y-116919333D01*
X140851619Y-117014571D01*
X140851619Y-117205047D01*
X140899238Y-117300285D01*
X140946857Y-117347904D01*
X141042095Y-117395523D01*
X141232571Y-117395523D01*
X141327809Y-117347904D01*
X141375428Y-117300285D01*
X141423047Y-117205047D01*
%TO.C,B1*%
X51832571Y-30620761D02*
X51880190Y-30477904D01*
X51927809Y-30430285D01*
X52023047Y-30382666D01*
X52165904Y-30382666D01*
X52261142Y-30430285D01*
X52308761Y-30477904D01*
X52356380Y-30573142D01*
X52356380Y-30954095D01*
X51356380Y-30954095D01*
X51356380Y-30620761D01*
X51404000Y-30525523D01*
X51451619Y-30477904D01*
X51546857Y-30430285D01*
X51642095Y-30430285D01*
X51737333Y-30477904D01*
X51784952Y-30525523D01*
X51832571Y-30620761D01*
X51832571Y-30954095D01*
X52356380Y-29430285D02*
X52356380Y-30001714D01*
X52356380Y-29716000D02*
X51356380Y-29716000D01*
X51499238Y-29811238D01*
X51594476Y-29906476D01*
X51642095Y-30001714D01*
X47315428Y-26786952D02*
X47315428Y-26025047D01*
X47696380Y-26406000D02*
X46934476Y-26406000D01*
%TO.C,1k6*%
X88336380Y-96861238D02*
X88336380Y-97432666D01*
X88336380Y-97146952D02*
X87336380Y-97146952D01*
X87479238Y-97242190D01*
X87574476Y-97337428D01*
X87622095Y-97432666D01*
X88336380Y-96432666D02*
X87336380Y-96432666D01*
X87955428Y-96337428D02*
X88336380Y-96051714D01*
X87669714Y-96051714D02*
X88050666Y-96432666D01*
X87336380Y-95194571D02*
X87336380Y-95385047D01*
X87384000Y-95480285D01*
X87431619Y-95527904D01*
X87574476Y-95623142D01*
X87764952Y-95670761D01*
X88145904Y-95670761D01*
X88241142Y-95623142D01*
X88288761Y-95575523D01*
X88336380Y-95480285D01*
X88336380Y-95289809D01*
X88288761Y-95194571D01*
X88241142Y-95146952D01*
X88145904Y-95099333D01*
X87907809Y-95099333D01*
X87812571Y-95146952D01*
X87764952Y-95194571D01*
X87717333Y-95289809D01*
X87717333Y-95480285D01*
X87764952Y-95575523D01*
X87812571Y-95623142D01*
X87907809Y-95670761D01*
%TO.C,1k9*%
X126436380Y-96861238D02*
X126436380Y-97432666D01*
X126436380Y-97146952D02*
X125436380Y-97146952D01*
X125579238Y-97242190D01*
X125674476Y-97337428D01*
X125722095Y-97432666D01*
X126436380Y-96432666D02*
X125436380Y-96432666D01*
X126055428Y-96337428D02*
X126436380Y-96051714D01*
X125769714Y-96051714D02*
X126150666Y-96432666D01*
X126436380Y-95575523D02*
X126436380Y-95385047D01*
X126388761Y-95289809D01*
X126341142Y-95242190D01*
X126198285Y-95146952D01*
X126007809Y-95099333D01*
X125626857Y-95099333D01*
X125531619Y-95146952D01*
X125484000Y-95194571D01*
X125436380Y-95289809D01*
X125436380Y-95480285D01*
X125484000Y-95575523D01*
X125531619Y-95623142D01*
X125626857Y-95670761D01*
X125864952Y-95670761D01*
X125960190Y-95623142D01*
X126007809Y-95575523D01*
X126055428Y-95480285D01*
X126055428Y-95289809D01*
X126007809Y-95194571D01*
X125960190Y-95146952D01*
X125864952Y-95099333D01*
%TO.C,U4*%
X68111619Y-115824095D02*
X67302095Y-115824095D01*
X67206857Y-115871714D01*
X67159238Y-115919333D01*
X67111619Y-116014571D01*
X67111619Y-116205047D01*
X67159238Y-116300285D01*
X67206857Y-116347904D01*
X67302095Y-116395523D01*
X68111619Y-116395523D01*
X67778285Y-117300285D02*
X67111619Y-117300285D01*
X68159238Y-117062190D02*
X67444952Y-116824095D01*
X67444952Y-117443142D01*
%TO.C,REF\u002A\u002A*%
X157670666Y-26478380D02*
X157337333Y-26002190D01*
X157099238Y-26478380D02*
X157099238Y-25478380D01*
X157480190Y-25478380D01*
X157575428Y-25526000D01*
X157623047Y-25573619D01*
X157670666Y-25668857D01*
X157670666Y-25811714D01*
X157623047Y-25906952D01*
X157575428Y-25954571D01*
X157480190Y-26002190D01*
X157099238Y-26002190D01*
X158099238Y-25954571D02*
X158432571Y-25954571D01*
X158575428Y-26478380D02*
X158099238Y-26478380D01*
X158099238Y-25478380D01*
X158575428Y-25478380D01*
X159337333Y-25954571D02*
X159004000Y-25954571D01*
X159004000Y-26478380D02*
X159004000Y-25478380D01*
X159480190Y-25478380D01*
X160004000Y-25478380D02*
X160004000Y-25716476D01*
X159765904Y-25621238D02*
X160004000Y-25716476D01*
X160242095Y-25621238D01*
X159861142Y-25906952D02*
X160004000Y-25716476D01*
X160146857Y-25906952D01*
X160765904Y-25478380D02*
X160765904Y-25716476D01*
X160527809Y-25621238D02*
X160765904Y-25716476D01*
X161004000Y-25621238D01*
X160623047Y-25906952D02*
X160765904Y-25716476D01*
X160908761Y-25906952D01*
%TO.C,1k5*%
X85796380Y-96996232D02*
X85796380Y-97567660D01*
X85796380Y-97281946D02*
X84796380Y-97281946D01*
X84939238Y-97377184D01*
X85034476Y-97472422D01*
X85082095Y-97567660D01*
X85796380Y-96567660D02*
X84796380Y-96567660D01*
X85415428Y-96472422D02*
X85796380Y-96186708D01*
X85129714Y-96186708D02*
X85510666Y-96567660D01*
X84796380Y-95281946D02*
X84796380Y-95758136D01*
X85272571Y-95805755D01*
X85224952Y-95758136D01*
X85177333Y-95662898D01*
X85177333Y-95424803D01*
X85224952Y-95329565D01*
X85272571Y-95281946D01*
X85367809Y-95234327D01*
X85605904Y-95234327D01*
X85701142Y-95281946D01*
X85748761Y-95329565D01*
X85796380Y-95424803D01*
X85796380Y-95662898D01*
X85748761Y-95758136D01*
X85701142Y-95805755D01*
%TO.C,B2*%
X82303718Y-30630761D02*
X82351337Y-30487904D01*
X82398956Y-30440285D01*
X82494194Y-30392666D01*
X82637051Y-30392666D01*
X82732289Y-30440285D01*
X82779908Y-30487904D01*
X82827527Y-30583142D01*
X82827527Y-30964095D01*
X81827527Y-30964095D01*
X81827527Y-30630761D01*
X81875147Y-30535523D01*
X81922766Y-30487904D01*
X82018004Y-30440285D01*
X82113242Y-30440285D01*
X82208480Y-30487904D01*
X82256099Y-30535523D01*
X82303718Y-30630761D01*
X82303718Y-30964095D01*
X81922766Y-30011714D02*
X81875147Y-29964095D01*
X81827527Y-29868857D01*
X81827527Y-29630761D01*
X81875147Y-29535523D01*
X81922766Y-29487904D01*
X82018004Y-29440285D01*
X82113242Y-29440285D01*
X82256099Y-29487904D01*
X82827527Y-30059333D01*
X82827527Y-29440285D01*
X77786575Y-26796952D02*
X77786575Y-26035047D01*
X78167527Y-26416000D02*
X77405623Y-26416000D01*
D11*
%TO.C,BT1*%
X133464000Y-149548500D02*
X133464000Y-154948500D01*
X132964000Y-159748500D02*
X143814000Y-159748500D01*
X143814000Y-159748500D02*
X143814000Y-147148500D01*
X132964000Y-149748500D02*
X132964000Y-149798500D01*
X132964000Y-149798500D02*
X133464000Y-149548500D01*
X133464000Y-147148500D02*
X133464000Y-148098500D01*
X143814000Y-147148500D02*
X133464000Y-147148500D01*
X132964000Y-154648500D02*
X132964000Y-159748500D01*
X133464000Y-154948500D02*
X132964000Y-154648500D01*
X132964000Y-147848500D02*
X132964000Y-149748500D01*
X133464000Y-148098500D02*
X132964000Y-147848500D01*
%TO.C,U9*%
X156464000Y-42926000D02*
X159134000Y-42926000D01*
X143764000Y-45466000D02*
X143764000Y-42926000D01*
X143764000Y-42926000D02*
X141094000Y-42926000D01*
X159134000Y-40256000D02*
X141094000Y-40256000D01*
X143764000Y-81026000D02*
X141094000Y-81026000D01*
X141094000Y-40256000D02*
X141094000Y-42926000D01*
X159134000Y-83696000D02*
X159134000Y-40256000D01*
X141094000Y-83696000D02*
X159134000Y-83696000D01*
X141094000Y-45466000D02*
X141094000Y-83696000D01*
X156464000Y-42926000D02*
X156464000Y-81026000D01*
X143764000Y-45466000D02*
X141094000Y-45466000D01*
X143764000Y-45466000D02*
X143764000Y-81026000D01*
X156464000Y-81026000D02*
X159134000Y-81026000D01*
%TO.C,1k2*%
X48758496Y-99268363D02*
X48758496Y-98318363D01*
X49678496Y-98318363D02*
X49678496Y-94478363D01*
X49678496Y-94478363D02*
X47838496Y-94478363D01*
X47838496Y-94478363D02*
X47838496Y-98318363D01*
X48758496Y-93528363D02*
X48758496Y-94478363D01*
X47838496Y-98318363D02*
X49678496Y-98318363D01*
%TO.C,U5*%
X66174000Y-40256000D02*
X66174000Y-42926000D01*
X68844000Y-45466000D02*
X68844000Y-42926000D01*
X68844000Y-42926000D02*
X66174000Y-42926000D01*
X81544000Y-81026000D02*
X84214000Y-81026000D01*
X81544000Y-42926000D02*
X84214000Y-42926000D01*
X66174000Y-83696000D02*
X84214000Y-83696000D01*
X68844000Y-81026000D02*
X66174000Y-81026000D01*
X68844000Y-45466000D02*
X68844000Y-81026000D01*
X66174000Y-45466000D02*
X66174000Y-83696000D01*
X68844000Y-45466000D02*
X66174000Y-45466000D01*
X84214000Y-40256000D02*
X66174000Y-40256000D01*
X84214000Y-83696000D02*
X84214000Y-40256000D01*
X81544000Y-42926000D02*
X81544000Y-81026000D01*
%TO.C,1k4*%
X83850141Y-94480994D02*
X82010141Y-94480994D01*
X82930141Y-93530994D02*
X82930141Y-94480994D01*
X83850141Y-98320994D02*
X83850141Y-94480994D01*
X82010141Y-98320994D02*
X83850141Y-98320994D01*
X82010141Y-94480994D02*
X82010141Y-98320994D01*
X82930141Y-99270994D02*
X82930141Y-98320994D01*
D12*
%TO.C,U6*%
X104084000Y-103286000D02*
X104084000Y-131286000D01*
X104084000Y-131286000D02*
X127084000Y-131286000D01*
X104084000Y-103286000D02*
X127084000Y-103286000D01*
X127084000Y-103286000D02*
X127084000Y-131286000D01*
D11*
%TO.C,B4*%
X142244000Y-30226000D02*
G75*
G03*
X142244000Y-30226000I-6100000J0D01*
G01*
%TO.C,B3*%
X119384000Y-30226000D02*
G75*
G03*
X119384000Y-30226000I-6100000J0D01*
G01*
%TO.C,1k12*%
X162698630Y-98186000D02*
X162698630Y-94346000D01*
X161778630Y-99136000D02*
X161778630Y-98186000D01*
X160858630Y-98186000D02*
X162698630Y-98186000D01*
X160858630Y-94346000D02*
X160858630Y-98186000D01*
X161778630Y-93396000D02*
X161778630Y-94346000D01*
X162698630Y-94346000D02*
X160858630Y-94346000D01*
%TO.C,1k11*%
X158318630Y-94346000D02*
X158318630Y-98186000D01*
X159238630Y-93396000D02*
X159238630Y-94346000D01*
X158318630Y-98186000D02*
X160158630Y-98186000D01*
X160158630Y-98186000D02*
X160158630Y-94346000D01*
X159238630Y-99136000D02*
X159238630Y-98186000D01*
X160158630Y-94346000D02*
X158318630Y-94346000D01*
%TO.C,1k8*%
X124364000Y-94346000D02*
X122524000Y-94346000D01*
X122524000Y-94346000D02*
X122524000Y-98186000D01*
X123444000Y-93396000D02*
X123444000Y-94346000D01*
X124364000Y-98186000D02*
X124364000Y-94346000D01*
X123444000Y-99136000D02*
X123444000Y-98186000D01*
X122524000Y-98186000D02*
X124364000Y-98186000D01*
%TO.C,U7*%
X104264000Y-45466000D02*
X104264000Y-83696000D01*
X119634000Y-81026000D02*
X122304000Y-81026000D01*
X104264000Y-83696000D02*
X122304000Y-83696000D01*
X106934000Y-42926000D02*
X104264000Y-42926000D01*
X106934000Y-81026000D02*
X104264000Y-81026000D01*
X119634000Y-42926000D02*
X119634000Y-81026000D01*
X104264000Y-40256000D02*
X104264000Y-42926000D01*
X106934000Y-45466000D02*
X104264000Y-45466000D01*
X106934000Y-45466000D02*
X106934000Y-81026000D01*
X119634000Y-42926000D02*
X122304000Y-42926000D01*
X122304000Y-83696000D02*
X122304000Y-40256000D01*
X106934000Y-45466000D02*
X106934000Y-42926000D01*
X122304000Y-40256000D02*
X104264000Y-40256000D01*
%TO.C,1k1*%
X47138496Y-94478363D02*
X45298496Y-94478363D01*
X45298496Y-98318363D02*
X47138496Y-98318363D01*
X46218496Y-93528363D02*
X46218496Y-94478363D01*
X47138496Y-98318363D02*
X47138496Y-94478363D01*
X45298496Y-94478363D02*
X45298496Y-98318363D01*
X46218496Y-99268363D02*
X46218496Y-98318363D01*
D12*
%TO.C,U2*%
X52394000Y-103286000D02*
X52394000Y-131286000D01*
X29394000Y-103286000D02*
X52394000Y-103286000D01*
X29394000Y-103286000D02*
X29394000Y-131286000D01*
X29394000Y-131286000D02*
X52394000Y-131286000D01*
D11*
%TO.C,1k7*%
X121824000Y-98186000D02*
X121824000Y-94346000D01*
X120904000Y-93396000D02*
X120904000Y-94346000D01*
X119984000Y-94346000D02*
X119984000Y-98186000D01*
X121824000Y-94346000D02*
X119984000Y-94346000D01*
X119984000Y-98186000D02*
X121824000Y-98186000D01*
X120904000Y-99136000D02*
X120904000Y-98186000D01*
%TO.C,U1*%
X65059000Y-136793500D02*
X65059000Y-135463500D01*
X67719000Y-138063500D02*
X67719000Y-150823500D01*
X65059000Y-135463500D02*
X66389000Y-135463500D01*
X65059000Y-150823500D02*
X67719000Y-150823500D01*
X65059000Y-138063500D02*
X65059000Y-150823500D01*
X65059000Y-138063500D02*
X67719000Y-138063500D01*
X68189000Y-151293500D02*
X31189000Y-151293500D01*
X31189000Y-151293500D02*
X31189000Y-135293500D01*
X31189000Y-135293500D02*
X68189000Y-135293500D01*
X68189000Y-135293500D02*
X68189000Y-151293500D01*
%TO.C,U3*%
X30734000Y-45466000D02*
X30734000Y-81026000D01*
X43434000Y-42926000D02*
X46104000Y-42926000D01*
X28064000Y-83696000D02*
X46104000Y-83696000D01*
X46104000Y-40256000D02*
X28064000Y-40256000D01*
X28064000Y-40256000D02*
X28064000Y-42926000D01*
X30734000Y-45466000D02*
X30734000Y-42926000D01*
X43434000Y-42926000D02*
X43434000Y-81026000D01*
X43434000Y-81026000D02*
X46104000Y-81026000D01*
X30734000Y-42926000D02*
X28064000Y-42926000D01*
X46104000Y-83696000D02*
X46104000Y-40256000D01*
X30734000Y-45466000D02*
X28064000Y-45466000D01*
X30734000Y-81026000D02*
X28064000Y-81026000D01*
X28064000Y-45466000D02*
X28064000Y-83696000D01*
%TO.C,1k10*%
X155778630Y-94346000D02*
X155778630Y-98186000D01*
X156698630Y-93396000D02*
X156698630Y-94346000D01*
X157618630Y-98186000D02*
X157618630Y-94346000D01*
X155778630Y-98186000D02*
X157618630Y-98186000D01*
X157618630Y-94346000D02*
X155778630Y-94346000D01*
X156698630Y-99136000D02*
X156698630Y-98186000D01*
%TO.C,1k3*%
X50378496Y-98318363D02*
X52218496Y-98318363D01*
X52218496Y-94478363D02*
X50378496Y-94478363D01*
X50378496Y-94478363D02*
X50378496Y-98318363D01*
X51298496Y-99268363D02*
X51298496Y-98318363D01*
X51298496Y-93528363D02*
X51298496Y-94478363D01*
X52218496Y-98318363D02*
X52218496Y-94478363D01*
D12*
%TO.C,U8*%
X139884000Y-131286000D02*
X162884000Y-131286000D01*
X139884000Y-103286000D02*
X139884000Y-131286000D01*
X139884000Y-103286000D02*
X162884000Y-103286000D01*
X162884000Y-103286000D02*
X162884000Y-131286000D01*
D11*
%TO.C,B1*%
X50804000Y-30216000D02*
G75*
G03*
X50804000Y-30216000I-6100000J0D01*
G01*
%TO.C,1k6*%
X88010141Y-93530994D02*
X88010141Y-94480994D01*
X88930141Y-94480994D02*
X87090141Y-94480994D01*
X88010141Y-99270994D02*
X88010141Y-98320994D01*
X88930141Y-98320994D02*
X88930141Y-94480994D01*
X87090141Y-98320994D02*
X88930141Y-98320994D01*
X87090141Y-94480994D02*
X87090141Y-98320994D01*
%TO.C,1k9*%
X125984000Y-99136000D02*
X125984000Y-98186000D01*
X125984000Y-93396000D02*
X125984000Y-94346000D01*
X126904000Y-98186000D02*
X126904000Y-94346000D01*
X125064000Y-98186000D02*
X126904000Y-98186000D01*
X125064000Y-94346000D02*
X125064000Y-98186000D01*
X126904000Y-94346000D02*
X125064000Y-94346000D01*
%TO.C,G*%
G36*
X105023700Y-146405578D02*
G01*
X105221371Y-146474828D01*
X105404476Y-146624194D01*
X105416513Y-146636154D01*
X105573307Y-146823358D01*
X105658732Y-146984505D01*
X105664000Y-147017154D01*
X105611891Y-147133020D01*
X105476123Y-147131445D01*
X105287539Y-147019746D01*
X105156000Y-146896667D01*
X104869301Y-146689693D01*
X104554835Y-146649241D01*
X104282601Y-146740008D01*
X104070496Y-146893892D01*
X103982631Y-147098712D01*
X103971963Y-147254548D01*
X104007871Y-147432207D01*
X104134031Y-147579234D01*
X104374748Y-147713113D01*
X104754328Y-147851331D01*
X104838169Y-147877678D01*
X105260292Y-148047039D01*
X105531504Y-148256011D01*
X105668843Y-148522576D01*
X105694017Y-148781033D01*
X105654010Y-149057158D01*
X105522970Y-149267454D01*
X105419083Y-149368548D01*
X105220023Y-149517251D01*
X105012000Y-149586092D01*
X104716705Y-149600708D01*
X104710164Y-149600633D01*
X104417693Y-149583696D01*
X104170892Y-149546625D01*
X104085559Y-149522046D01*
X103888536Y-149395262D01*
X103740191Y-149216342D01*
X103655507Y-149025490D01*
X103649465Y-148862908D01*
X103737047Y-148768799D01*
X103801334Y-148759333D01*
X103938623Y-148809656D01*
X103970667Y-148880188D01*
X104044315Y-149038967D01*
X104228150Y-149195029D01*
X104466504Y-149311501D01*
X104682913Y-149352000D01*
X105012716Y-149290903D01*
X105232943Y-149118632D01*
X105324004Y-148851714D01*
X105325334Y-148809988D01*
X105296307Y-148598066D01*
X105191551Y-148432373D01*
X104984552Y-148290790D01*
X104648798Y-148151201D01*
X104457456Y-148086029D01*
X104057628Y-147927219D01*
X103802895Y-147749250D01*
X103669097Y-147527749D01*
X103632000Y-147253262D01*
X103699027Y-146881131D01*
X103899672Y-146612688D01*
X104233286Y-146448441D01*
X104699218Y-146388900D01*
X104734975Y-146388667D01*
X105023700Y-146405578D01*
G37*
G36*
X122230152Y-146392863D02*
G01*
X122483633Y-146408239D01*
X122623630Y-146438971D01*
X122677993Y-146489237D01*
X122682000Y-146515667D01*
X122650097Y-146580829D01*
X122534345Y-146619936D01*
X122304675Y-146638624D01*
X122004667Y-146642667D01*
X121327334Y-146642667D01*
X121327334Y-147828000D01*
X121920000Y-147828000D01*
X122231465Y-147832568D01*
X122409898Y-147853170D01*
X122491508Y-147900151D01*
X122512502Y-147983854D01*
X122512667Y-147997333D01*
X122496677Y-148086323D01*
X122424570Y-148137304D01*
X122260139Y-148160621D01*
X121967176Y-148166619D01*
X121920000Y-148166667D01*
X121327334Y-148166667D01*
X121327334Y-149352000D01*
X122004667Y-149352000D01*
X122352201Y-149357982D01*
X122560769Y-149379685D01*
X122660438Y-149422748D01*
X122682000Y-149479000D01*
X122654022Y-149538223D01*
X122551519Y-149576245D01*
X122346640Y-149597244D01*
X122011533Y-149605399D01*
X121835334Y-149606000D01*
X120988667Y-149606000D01*
X120988667Y-146388667D01*
X121835334Y-146388667D01*
X122230152Y-146392863D01*
G37*
G36*
X104394000Y-142567248D02*
G01*
X104395019Y-143161748D01*
X104399461Y-143611083D01*
X104409406Y-143939421D01*
X104426933Y-144170924D01*
X104454120Y-144329759D01*
X104493048Y-144440089D01*
X104545794Y-144526079D01*
X104564657Y-144550786D01*
X104848040Y-144786041D01*
X105201022Y-144900699D01*
X105575202Y-144894637D01*
X105922178Y-144767731D01*
X106167458Y-144554877D01*
X106225790Y-144470876D01*
X106269421Y-144371518D01*
X106300470Y-144232578D01*
X106321057Y-144029828D01*
X106333302Y-143739041D01*
X106339323Y-143335989D01*
X106341240Y-142796445D01*
X106341334Y-142567248D01*
X106341334Y-140800667D01*
X107357334Y-140800667D01*
X107357334Y-142566032D01*
X107354256Y-143232143D01*
X107342656Y-143754053D01*
X107318988Y-144156826D01*
X107279703Y-144465520D01*
X107221252Y-144705198D01*
X107140088Y-144900920D01*
X107032662Y-145077747D01*
X106994080Y-145131818D01*
X106684978Y-145424653D01*
X106261622Y-145648246D01*
X105769349Y-145789964D01*
X105253495Y-145837177D01*
X104759397Y-145777250D01*
X104717474Y-145766151D01*
X104207106Y-145546751D01*
X103802309Y-145209629D01*
X103556001Y-144840237D01*
X103496951Y-144706727D01*
X103452559Y-144566218D01*
X103420758Y-144393112D01*
X103399480Y-144161806D01*
X103386657Y-143846701D01*
X103380221Y-143422195D01*
X103378104Y-142862689D01*
X103378000Y-142636602D01*
X103378000Y-140800667D01*
X104394000Y-140800667D01*
X104394000Y-142567248D01*
G37*
G36*
X114723334Y-141647333D02*
G01*
X113368667Y-141647333D01*
X113368667Y-145796000D01*
X112352667Y-145796000D01*
X112352667Y-141654456D01*
X111696500Y-141629728D01*
X111040334Y-141605000D01*
X111040334Y-140843000D01*
X114723334Y-140797364D01*
X114723334Y-141647333D01*
G37*
G36*
X130424352Y-146417501D02*
G01*
X130472565Y-146453974D01*
X130507059Y-146536000D01*
X130529448Y-146686504D01*
X130541342Y-146928411D01*
X130544353Y-147284647D01*
X130540093Y-147778137D01*
X130536751Y-148016578D01*
X130527761Y-148563153D01*
X130517623Y-148963204D01*
X130503503Y-149239532D01*
X130482563Y-149414938D01*
X130451969Y-149512222D01*
X130408885Y-149554187D01*
X130350474Y-149563632D01*
X130344334Y-149563667D01*
X130275717Y-149553264D01*
X130226924Y-149504414D01*
X130193032Y-149390653D01*
X130169118Y-149185517D01*
X130150258Y-148862543D01*
X130132667Y-148425928D01*
X130090334Y-147288190D01*
X129584116Y-148447095D01*
X129345510Y-148973163D01*
X129158615Y-149340160D01*
X129022414Y-149549933D01*
X128945577Y-149606000D01*
X128848659Y-149525832D01*
X128699504Y-149285204D01*
X128498005Y-148883925D01*
X128315456Y-148484167D01*
X128133250Y-148078689D01*
X127970900Y-147726938D01*
X127842573Y-147458904D01*
X127762436Y-147304576D01*
X127747494Y-147281900D01*
X127722617Y-147331897D01*
X127701621Y-147523763D01*
X127686221Y-147830049D01*
X127678136Y-148223302D01*
X127677334Y-148403733D01*
X127676148Y-148876547D01*
X127670137Y-149205890D01*
X127655618Y-149417620D01*
X127628910Y-149537595D01*
X127586329Y-149591674D01*
X127524194Y-149605715D01*
X127506132Y-149606000D01*
X127446444Y-149599813D01*
X127402981Y-149566224D01*
X127373638Y-149482687D01*
X127356312Y-149326657D01*
X127348899Y-149075588D01*
X127349293Y-148706936D01*
X127355391Y-148198155D01*
X127357965Y-148018500D01*
X127366863Y-147463672D01*
X127376897Y-147055679D01*
X127390748Y-146772033D01*
X127411100Y-146590242D01*
X127440636Y-146487816D01*
X127482038Y-146442265D01*
X127537990Y-146431099D01*
X127547332Y-146431000D01*
X127623349Y-146460594D01*
X127714701Y-146561861D01*
X127832185Y-146753531D01*
X127986599Y-147054332D01*
X128188744Y-147482993D01*
X128320678Y-147772305D01*
X128519492Y-148202509D01*
X128696034Y-148567331D01*
X128838411Y-148843569D01*
X128934730Y-149008023D01*
X128971695Y-149042305D01*
X129019619Y-148943474D01*
X129122577Y-148718281D01*
X129267623Y-148395449D01*
X129441808Y-148003704D01*
X129538118Y-147785667D01*
X129768067Y-147271357D01*
X129946159Y-146895366D01*
X130084386Y-146639180D01*
X130194740Y-146484283D01*
X130289216Y-146412162D01*
X130379804Y-146404300D01*
X130424352Y-146417501D01*
G37*
G36*
X119365230Y-146391913D02*
G01*
X119671685Y-146403569D01*
X119858500Y-146426506D01*
X119950476Y-146463597D01*
X119972667Y-146511242D01*
X119915054Y-146592711D01*
X119726904Y-146641659D01*
X119528167Y-146659409D01*
X119083667Y-146685000D01*
X119060501Y-148145500D01*
X119051146Y-148674575D01*
X119040391Y-149057766D01*
X119025176Y-149318514D01*
X119002445Y-149480261D01*
X118969139Y-149566447D01*
X118922202Y-149600513D01*
X118870001Y-149606000D01*
X118809775Y-149598227D01*
X118766041Y-149559376D01*
X118736169Y-149466150D01*
X118717527Y-149295250D01*
X118707483Y-149023379D01*
X118703408Y-148627238D01*
X118702667Y-148124333D01*
X118702667Y-146642667D01*
X118279334Y-146642667D01*
X118013115Y-146629071D01*
X117883089Y-146581998D01*
X117856000Y-146515667D01*
X117880982Y-146461868D01*
X117972905Y-146425325D01*
X118157236Y-146402982D01*
X118459442Y-146391781D01*
X118904990Y-146388667D01*
X118914334Y-146388667D01*
X119365230Y-146391913D01*
G37*
G36*
X124288337Y-147757697D02*
G01*
X124453346Y-147315191D01*
X124582244Y-146983850D01*
X124682102Y-146747619D01*
X124759994Y-146590442D01*
X124822991Y-146496262D01*
X124878167Y-146449024D01*
X124932594Y-146432672D01*
X124971117Y-146431000D01*
X125042635Y-146444913D01*
X125112314Y-146500191D01*
X125190155Y-146617145D01*
X125286156Y-146816083D01*
X125410316Y-147117316D01*
X125572635Y-147541152D01*
X125742297Y-147997333D01*
X125919687Y-148478644D01*
X126075171Y-148902808D01*
X126199843Y-149245345D01*
X126284800Y-149481774D01*
X126321138Y-149587613D01*
X126321845Y-149590722D01*
X126251778Y-149601594D01*
X126139588Y-149590722D01*
X125982173Y-149500019D01*
X125849318Y-149265484D01*
X125825758Y-149203833D01*
X125695007Y-148844000D01*
X124243112Y-148844000D01*
X124118723Y-149203833D01*
X124001127Y-149458555D01*
X123861813Y-149576130D01*
X123803514Y-149590764D01*
X123612695Y-149617861D01*
X123821694Y-149040430D01*
X124023328Y-148484167D01*
X124396301Y-148484167D01*
X124422427Y-148542511D01*
X124568346Y-148576251D01*
X124855601Y-148589438D01*
X124958942Y-148590000D01*
X125253547Y-148583028D01*
X125468023Y-148564659D01*
X125559864Y-148538715D01*
X125560667Y-148535914D01*
X125532861Y-148425088D01*
X125460054Y-148208182D01*
X125358157Y-147926917D01*
X125243083Y-147623012D01*
X125130746Y-147338189D01*
X125037057Y-147114167D01*
X124977931Y-146992668D01*
X124968000Y-146982051D01*
X124923043Y-147056073D01*
X124838912Y-147254151D01*
X124730592Y-147539904D01*
X124680526Y-147680053D01*
X124565138Y-148008133D01*
X124468901Y-148280659D01*
X124407322Y-148453763D01*
X124396301Y-148484167D01*
X124023328Y-148484167D01*
X124080144Y-148327425D01*
X124288337Y-147757697D01*
G37*
G36*
X109220000Y-144949333D02*
G01*
X110828667Y-144949333D01*
X110828667Y-145796000D01*
X108204000Y-145796000D01*
X108204000Y-140800667D01*
X109220000Y-140800667D01*
X109220000Y-144949333D01*
G37*
G36*
X116247334Y-145796000D02*
G01*
X115231334Y-145796000D01*
X115231334Y-140800667D01*
X116247334Y-140800667D01*
X116247334Y-145796000D01*
G37*
G36*
X118179300Y-140800667D02*
G01*
X118834444Y-140814718D01*
X119348009Y-140861156D01*
X119745744Y-140946405D01*
X120053400Y-141076888D01*
X120296729Y-141259030D01*
X120384469Y-141350802D01*
X120640610Y-141752080D01*
X120760062Y-142190011D01*
X120748728Y-142631177D01*
X120612516Y-143042156D01*
X120357329Y-143389531D01*
X119989074Y-143639881D01*
X119979191Y-143644290D01*
X119651142Y-143789025D01*
X119965103Y-144305679D01*
X120178979Y-144662758D01*
X120407192Y-145051562D01*
X120555412Y-145309167D01*
X120831761Y-145796000D01*
X119665313Y-145796000D01*
X119120490Y-144824241D01*
X118893168Y-144424708D01*
X118726268Y-144151424D01*
X118601063Y-143980943D01*
X118498826Y-143889818D01*
X118400829Y-143854601D01*
X118342834Y-143850575D01*
X118110000Y-143848667D01*
X118110000Y-145796000D01*
X117094000Y-145796000D01*
X117094000Y-143086667D01*
X118110000Y-143086667D01*
X118706515Y-143086667D01*
X119036061Y-143079063D01*
X119248754Y-143047270D01*
X119396738Y-142977815D01*
X119510849Y-142878848D01*
X119678704Y-142601480D01*
X119713260Y-142277212D01*
X119611560Y-141967236D01*
X119558522Y-141891656D01*
X119450312Y-141786653D01*
X119304966Y-141721629D01*
X119077293Y-141683646D01*
X118754189Y-141661355D01*
X118110000Y-141628825D01*
X118110000Y-143086667D01*
X117094000Y-143086667D01*
X117094000Y-140800667D01*
X118179300Y-140800667D01*
G37*
G36*
X107077478Y-146395592D02*
G01*
X107120820Y-146431289D01*
X107151050Y-146518139D01*
X107170524Y-146678524D01*
X107181597Y-146934826D01*
X107186625Y-147309427D01*
X107187965Y-147824708D01*
X107188000Y-147997333D01*
X107187271Y-148556037D01*
X107183514Y-148967791D01*
X107174372Y-149254976D01*
X107157489Y-149439975D01*
X107130510Y-149545168D01*
X107091078Y-149592939D01*
X107036838Y-149605667D01*
X107018667Y-149606000D01*
X106959856Y-149599075D01*
X106916513Y-149563378D01*
X106886283Y-149476528D01*
X106866810Y-149316142D01*
X106855737Y-149059840D01*
X106850708Y-148685240D01*
X106849369Y-148169959D01*
X106849334Y-147997333D01*
X106850062Y-147438629D01*
X106853820Y-147026875D01*
X106862962Y-146739690D01*
X106879845Y-146554691D01*
X106906824Y-146449498D01*
X106946256Y-146401728D01*
X107000496Y-146388999D01*
X107018667Y-146388667D01*
X107077478Y-146395592D01*
G37*
G36*
X130386667Y-141647333D02*
G01*
X129032000Y-141647333D01*
X129032000Y-145796000D01*
X128016000Y-145796000D01*
X128016000Y-141647333D01*
X126661334Y-141647333D01*
X126661334Y-140800667D01*
X130386667Y-140800667D01*
X130386667Y-141647333D01*
G37*
G36*
X137646834Y-140814068D02*
G01*
X138142283Y-140827678D01*
X138502714Y-140845273D01*
X138762438Y-140871916D01*
X138955768Y-140912674D01*
X139117014Y-140972611D01*
X139276667Y-141054667D01*
X139629591Y-141323739D01*
X139848167Y-141644106D01*
X140014057Y-142136840D01*
X140017775Y-142611739D01*
X139866443Y-143047280D01*
X139567181Y-143421942D01*
X139170303Y-143692848D01*
X138936940Y-143811621D01*
X139486236Y-144740310D01*
X139693757Y-145095981D01*
X139865626Y-145399717D01*
X139985334Y-145621667D01*
X140036372Y-145731979D01*
X140037099Y-145736368D01*
X139960724Y-145766718D01*
X139758791Y-145781994D01*
X139474663Y-145778967D01*
X139468528Y-145778702D01*
X138898389Y-145753667D01*
X138362463Y-144801167D01*
X138132876Y-144401009D01*
X137962972Y-144128561D01*
X137834944Y-143960971D01*
X137730984Y-143875385D01*
X137633286Y-143848950D01*
X137620268Y-143848667D01*
X137414000Y-143848667D01*
X137414000Y-145796000D01*
X136398000Y-145796000D01*
X136398000Y-143086667D01*
X137414000Y-143086667D01*
X137900834Y-143085510D01*
X138206472Y-143075922D01*
X138468883Y-143052539D01*
X138581558Y-143032416D01*
X138785773Y-142899408D01*
X138932966Y-142660529D01*
X138992527Y-142377168D01*
X138979203Y-142234852D01*
X138848006Y-141943719D01*
X138598374Y-141754305D01*
X138219548Y-141660452D01*
X137952915Y-141647333D01*
X137414000Y-141647333D01*
X137414000Y-143086667D01*
X136398000Y-143086667D01*
X136398000Y-140785136D01*
X137646834Y-140814068D01*
G37*
G36*
X80048522Y-154607912D02*
G01*
X79182803Y-153447641D01*
X78442719Y-152179607D01*
X78362057Y-152019000D01*
X77991400Y-151229225D01*
X77700347Y-150510388D01*
X77466271Y-149798436D01*
X77266542Y-149029318D01*
X77198626Y-148725810D01*
X77096635Y-148096459D01*
X77030361Y-147350026D01*
X76999749Y-146534941D01*
X77001634Y-146219333D01*
X77609035Y-146219333D01*
X77634061Y-147147217D01*
X77709681Y-147972840D01*
X77845468Y-148758230D01*
X78050989Y-149565415D01*
X78199992Y-150049720D01*
X78708195Y-151362898D01*
X79360853Y-152598249D01*
X80166001Y-153770167D01*
X80525540Y-154216060D01*
X80798321Y-154537043D01*
X80977655Y-154737838D01*
X81076328Y-154830123D01*
X81107126Y-154825574D01*
X81082836Y-154735867D01*
X81076570Y-154719266D01*
X81059847Y-154445112D01*
X81186647Y-154097140D01*
X81452680Y-153684147D01*
X81761306Y-153314574D01*
X82206872Y-152831186D01*
X82713615Y-152293256D01*
X83265076Y-151717284D01*
X83844798Y-151119776D01*
X84436322Y-150517231D01*
X85023189Y-149926155D01*
X85588942Y-149363048D01*
X86117122Y-148844415D01*
X86591270Y-148386756D01*
X86994930Y-148006576D01*
X87311641Y-147720376D01*
X87486450Y-147574000D01*
X88296512Y-146939000D01*
X88247304Y-146600333D01*
X88197804Y-146290075D01*
X88164327Y-146182261D01*
X89753954Y-146182261D01*
X89821834Y-146315546D01*
X89977226Y-146376119D01*
X90021455Y-146373438D01*
X90181050Y-146289422D01*
X90212334Y-146178159D01*
X90145045Y-146032890D01*
X89993050Y-145970883D01*
X89831159Y-146018573D01*
X89811098Y-146036369D01*
X89753954Y-146182261D01*
X88164327Y-146182261D01*
X88135139Y-146088259D01*
X88025432Y-145969059D01*
X87834803Y-145906646D01*
X87529374Y-145875192D01*
X87276780Y-145860427D01*
X86643009Y-145792438D01*
X86093178Y-145651574D01*
X85559947Y-145415788D01*
X85111959Y-145151620D01*
X84902102Y-145008097D01*
X84591096Y-144782889D01*
X84195919Y-144489224D01*
X83733546Y-144140330D01*
X83220956Y-143749435D01*
X82675125Y-143329766D01*
X82113030Y-142894551D01*
X81551649Y-142457017D01*
X81007958Y-142030393D01*
X80498934Y-141627905D01*
X80041556Y-141262782D01*
X79652799Y-140948251D01*
X79349640Y-140697541D01*
X79149058Y-140523878D01*
X79070058Y-140444070D01*
X79017809Y-140481942D01*
X78918349Y-140647309D01*
X78788065Y-140910728D01*
X78698159Y-141112322D01*
X78293613Y-142127001D01*
X77992728Y-143063479D01*
X77785427Y-143969004D01*
X77661633Y-144890825D01*
X77611270Y-145876192D01*
X77609035Y-146219333D01*
X77001634Y-146219333D01*
X77004739Y-145699633D01*
X77045274Y-144892531D01*
X77121298Y-144162066D01*
X77204620Y-143679333D01*
X77584481Y-142240824D01*
X78085097Y-140911330D01*
X78547947Y-139999993D01*
X79259429Y-139999993D01*
X79280403Y-140022778D01*
X79393765Y-139966613D01*
X79724414Y-139880373D01*
X80130075Y-139922613D01*
X80348667Y-139991010D01*
X80589724Y-140078074D01*
X80688980Y-140094237D01*
X80650408Y-140027558D01*
X80477982Y-139866093D01*
X80410275Y-139805833D01*
X80106741Y-139547263D01*
X79895482Y-139400128D01*
X79751007Y-139354189D01*
X79647825Y-139399205D01*
X79588700Y-139475801D01*
X79452398Y-139692195D01*
X79344057Y-139860780D01*
X79259429Y-139999993D01*
X78547947Y-139999993D01*
X78713146Y-139674722D01*
X79154911Y-138969163D01*
X80057971Y-137775170D01*
X80340520Y-137477850D01*
X81258372Y-137477850D01*
X81310234Y-137468235D01*
X81585282Y-137453101D01*
X81929666Y-137563653D01*
X82314046Y-137787966D01*
X82553223Y-137973519D01*
X82957949Y-138325018D01*
X83436812Y-138752930D01*
X83972294Y-139240589D01*
X84546876Y-139771329D01*
X85143041Y-140328485D01*
X85743270Y-140895390D01*
X86330045Y-141455379D01*
X86885849Y-141991785D01*
X87393162Y-142487944D01*
X87834467Y-142927189D01*
X88192245Y-143292855D01*
X88448979Y-143568275D01*
X88519569Y-143649576D01*
X88813648Y-143998228D01*
X89022597Y-144235244D01*
X89169734Y-144379036D01*
X89278374Y-144448022D01*
X89371833Y-144460613D01*
X89473429Y-144435226D01*
X89501928Y-144425418D01*
X89753120Y-144377929D01*
X90056501Y-144371654D01*
X90130560Y-144377915D01*
X90364140Y-144395556D01*
X90487535Y-144360559D01*
X90558065Y-144245116D01*
X90589167Y-144155426D01*
X90655028Y-143916893D01*
X90726890Y-143602208D01*
X90761969Y-143425333D01*
X90847123Y-143096567D01*
X90981514Y-142711416D01*
X91110488Y-142409333D01*
X91187359Y-142260393D01*
X91281961Y-142106983D01*
X91406270Y-141935984D01*
X91572264Y-141734277D01*
X91791918Y-141488742D01*
X92077208Y-141186259D01*
X92440112Y-140813709D01*
X92892604Y-140357972D01*
X93446661Y-139805929D01*
X93871586Y-139384637D01*
X94568566Y-138690866D01*
X95144670Y-138109411D01*
X95602873Y-137637111D01*
X95946150Y-137270804D01*
X96177478Y-137007330D01*
X96299830Y-136843528D01*
X96321259Y-136782152D01*
X96324843Y-136682326D01*
X96371032Y-136674182D01*
X96465576Y-136630158D01*
X96473818Y-136595555D01*
X96526589Y-136450361D01*
X96541167Y-136433278D01*
X96601349Y-136268728D01*
X96561976Y-136055434D01*
X96450863Y-135856234D01*
X96295825Y-135733967D01*
X96225745Y-135720667D01*
X96134484Y-135779342D01*
X95952985Y-135940201D01*
X95705313Y-136180495D01*
X95415531Y-136477471D01*
X95332822Y-136564816D01*
X95033899Y-136877288D01*
X94769534Y-137143922D01*
X94564376Y-137340559D01*
X94443075Y-137443036D01*
X94428523Y-137451196D01*
X94397466Y-137411172D01*
X94449399Y-137248041D01*
X94530234Y-137075529D01*
X94648610Y-136820812D01*
X94725470Y-136614911D01*
X94742000Y-136534870D01*
X94784124Y-136406848D01*
X94814166Y-136383889D01*
X94883274Y-136299673D01*
X95002794Y-136101031D01*
X95150107Y-135826310D01*
X95192444Y-135742600D01*
X95498556Y-135129533D01*
X95268445Y-135010805D01*
X94330381Y-134598961D01*
X93281098Y-134264472D01*
X92163831Y-134015285D01*
X91021812Y-133859344D01*
X89898277Y-133804596D01*
X88941694Y-133848111D01*
X87461871Y-134070767D01*
X86058128Y-134444211D01*
X84731412Y-134968082D01*
X83482669Y-135642018D01*
X82550000Y-136281745D01*
X82179299Y-136571023D01*
X81848315Y-136845820D01*
X81573888Y-137090019D01*
X81372861Y-137287502D01*
X81262075Y-137422152D01*
X81258372Y-137477850D01*
X80340520Y-137477850D01*
X81072726Y-136707366D01*
X82194658Y-135768780D01*
X83419251Y-134962440D01*
X84741988Y-134291375D01*
X86158352Y-133758612D01*
X87438780Y-133415372D01*
X88023125Y-133318434D01*
X88727822Y-133253370D01*
X89506922Y-133220144D01*
X90314478Y-133218716D01*
X91104542Y-133249048D01*
X91831165Y-133311102D01*
X92448401Y-133404839D01*
X92519418Y-133419611D01*
X93967543Y-133812986D01*
X95344842Y-134348603D01*
X96639570Y-135019148D01*
X97839984Y-135817306D01*
X98934341Y-136735764D01*
X99910896Y-137767206D01*
X100315531Y-138275219D01*
X100500972Y-138532729D01*
X100718309Y-138851720D01*
X100947760Y-139200923D01*
X101169545Y-139549071D01*
X101363881Y-139864894D01*
X101510988Y-140117126D01*
X101591084Y-140274497D01*
X101600000Y-140305586D01*
X101525022Y-140351142D01*
X101338443Y-140375862D01*
X101272493Y-140377333D01*
X101097221Y-140368222D01*
X100970826Y-140319628D01*
X100854921Y-140199666D01*
X100711118Y-139976448D01*
X100635467Y-139848167D01*
X100265957Y-139271090D01*
X99814543Y-138651237D01*
X99329869Y-138053682D01*
X99100717Y-137795000D01*
X98899830Y-137583533D01*
X98791300Y-137493105D01*
X98759996Y-137513907D01*
X98774155Y-137583333D01*
X98819466Y-137943723D01*
X98722821Y-138278049D01*
X98577470Y-138506884D01*
X98439772Y-138669254D01*
X98196128Y-138933933D01*
X97861642Y-139285854D01*
X97451416Y-139709951D01*
X96980557Y-140191157D01*
X96464166Y-140714409D01*
X95917348Y-141264638D01*
X95355208Y-141826780D01*
X94792848Y-142385769D01*
X94245372Y-142926539D01*
X93727885Y-143434023D01*
X93255491Y-143893156D01*
X92843293Y-144288873D01*
X92506395Y-144606107D01*
X92259901Y-144829792D01*
X92133798Y-144934343D01*
X91855400Y-145150412D01*
X91699058Y-145305043D01*
X91642048Y-145424622D01*
X91648112Y-145498282D01*
X91690952Y-145690085D01*
X91737788Y-145955532D01*
X91749170Y-146030154D01*
X91780040Y-146208222D01*
X91831328Y-146327109D01*
X91934505Y-146402164D01*
X92121044Y-146448739D01*
X92422415Y-146482184D01*
X92725932Y-146506578D01*
X93434652Y-146594974D01*
X94070981Y-146753327D01*
X94674245Y-146998375D01*
X95283768Y-147346857D01*
X95938877Y-147815510D01*
X96102051Y-147943584D01*
X96985667Y-148646956D01*
X97018488Y-147787923D01*
X97451334Y-147787923D01*
X97455710Y-148328025D01*
X97476713Y-148720908D01*
X97526157Y-148988620D01*
X97615851Y-149153206D01*
X97757610Y-149236713D01*
X97963245Y-149261188D01*
X98234379Y-149249418D01*
X98556144Y-149208203D01*
X98780028Y-149123843D01*
X98976676Y-148969714D01*
X98976770Y-148969624D01*
X99225101Y-148628133D01*
X99351734Y-148225441D01*
X99360129Y-147802266D01*
X99253746Y-147399325D01*
X99036044Y-147057333D01*
X98797744Y-146862924D01*
X98585712Y-146779948D01*
X98278277Y-146708082D01*
X98004886Y-146669872D01*
X97451334Y-146618180D01*
X97451334Y-147787923D01*
X97018488Y-147787923D01*
X97028000Y-147538978D01*
X97063182Y-146618180D01*
X97070334Y-146431000D01*
X97682627Y-146406155D01*
X98291571Y-146420315D01*
X98773116Y-146521043D01*
X99148065Y-146712984D01*
X99186584Y-146742132D01*
X99467381Y-147063590D01*
X99650353Y-147483292D01*
X99727204Y-147955751D01*
X99689635Y-148435479D01*
X99563842Y-148810255D01*
X99333845Y-149156872D01*
X99012880Y-149402178D01*
X98606477Y-149563442D01*
X98276405Y-149660900D01*
X99493703Y-150617680D01*
X99892448Y-150933589D01*
X100251951Y-151223096D01*
X100547965Y-151466303D01*
X100756241Y-151643313D01*
X100848424Y-151729343D01*
X100923117Y-151798492D01*
X100987711Y-151793708D01*
X101064725Y-151691645D01*
X101176678Y-151468954D01*
X101248349Y-151314726D01*
X101398619Y-150976755D01*
X101535980Y-150647478D01*
X101626962Y-150408446D01*
X101716536Y-150192385D01*
X101828762Y-150090009D01*
X102028506Y-150051014D01*
X102094805Y-150045635D01*
X102446536Y-150019603D01*
X102226064Y-150638302D01*
X101978646Y-151249254D01*
X101652150Y-151934309D01*
X101276463Y-152637953D01*
X100881475Y-153304675D01*
X100497075Y-153878962D01*
X100437931Y-153959391D01*
X99533592Y-155036052D01*
X98505550Y-156019398D01*
X97376230Y-156893158D01*
X96168058Y-157641060D01*
X94903459Y-158246835D01*
X94134549Y-158532787D01*
X93336424Y-158776162D01*
X92581653Y-158955503D01*
X91795718Y-159086238D01*
X91059000Y-159169584D01*
X90577938Y-159212604D01*
X90202823Y-159236568D01*
X89873376Y-159241395D01*
X89529317Y-159227007D01*
X89110368Y-159193324D01*
X88827174Y-159166640D01*
X87348397Y-158942648D01*
X85928659Y-158565407D01*
X84577472Y-158041416D01*
X83304351Y-157377174D01*
X82118810Y-156579177D01*
X81796467Y-156305164D01*
X83396667Y-156305164D01*
X83442620Y-156523799D01*
X83554573Y-156731400D01*
X83693667Y-156866339D01*
X83763747Y-156887333D01*
X83865728Y-156830506D01*
X84051915Y-156678331D01*
X84289928Y-156458268D01*
X84412667Y-156337000D01*
X84659258Y-156095004D01*
X84863425Y-155907241D01*
X84995016Y-155800859D01*
X85023916Y-155786667D01*
X85017094Y-155855031D01*
X84942511Y-156037583D01*
X84814684Y-156300509D01*
X84751196Y-156421925D01*
X84559758Y-156804364D01*
X84442275Y-157090683D01*
X84404629Y-157264217D01*
X84437374Y-157310667D01*
X84521054Y-157340475D01*
X84727281Y-157420921D01*
X85021869Y-157538534D01*
X85262874Y-157635975D01*
X86468073Y-158059419D01*
X87735517Y-158383014D01*
X88138000Y-158460981D01*
X88599768Y-158516748D01*
X89184288Y-158547490D01*
X89847035Y-158554501D01*
X90543487Y-158539074D01*
X91229118Y-158502502D01*
X91859406Y-158446078D01*
X92389826Y-158371094D01*
X92583000Y-158331888D01*
X93891088Y-157960683D01*
X95136370Y-157468911D01*
X96296753Y-156868090D01*
X97350141Y-156169739D01*
X98274441Y-155385376D01*
X98319951Y-155341088D01*
X98567695Y-155096391D01*
X98752138Y-154910556D01*
X98852434Y-154804838D01*
X98858617Y-154791833D01*
X98659401Y-154851839D01*
X98382965Y-154835240D01*
X98098926Y-154749773D01*
X97995279Y-154695915D01*
X97819577Y-154566444D01*
X97539380Y-154332131D01*
X97170115Y-154007685D01*
X96727211Y-153607814D01*
X96226094Y-153147227D01*
X95682192Y-152640633D01*
X95630921Y-152592357D01*
X99921245Y-152592357D01*
X100041730Y-152691600D01*
X100097167Y-152719998D01*
X100312937Y-152802360D01*
X100452667Y-152770956D01*
X100579699Y-152605790D01*
X100606784Y-152559119D01*
X100699725Y-152387797D01*
X100706685Y-152329640D01*
X100627662Y-152351932D01*
X100606784Y-152360889D01*
X100416500Y-152418993D01*
X100181834Y-152464498D01*
X99967778Y-152517161D01*
X99921245Y-152592357D01*
X95630921Y-152592357D01*
X95291754Y-152273000D01*
X99398667Y-152273000D01*
X99441000Y-152315333D01*
X99483334Y-152273000D01*
X99441000Y-152230667D01*
X99398667Y-152273000D01*
X95291754Y-152273000D01*
X95201835Y-152188333D01*
X100753334Y-152188333D01*
X100795667Y-152230667D01*
X100838000Y-152188333D01*
X100795667Y-152146000D01*
X100753334Y-152188333D01*
X95201835Y-152188333D01*
X95110933Y-152102740D01*
X94527743Y-151548257D01*
X93948051Y-150991893D01*
X93387284Y-150448357D01*
X92860869Y-149932357D01*
X92384234Y-149458601D01*
X91972806Y-149041800D01*
X91642013Y-148696661D01*
X91407282Y-148437893D01*
X91320207Y-148331834D01*
X91080705Y-148036822D01*
X90903900Y-147869101D01*
X90767813Y-147809319D01*
X90727540Y-147810056D01*
X90550514Y-147830740D01*
X90272197Y-147859409D01*
X90020957Y-147883475D01*
X89728501Y-147916672D01*
X89562461Y-147961172D01*
X89480141Y-148036987D01*
X89440782Y-148155419D01*
X89234845Y-148913646D01*
X88970511Y-149641134D01*
X88664082Y-150302221D01*
X88331863Y-150861249D01*
X88029580Y-151242080D01*
X87861118Y-151411923D01*
X87592305Y-151673559D01*
X87247246Y-152003956D01*
X86850046Y-152380083D01*
X86424809Y-152778908D01*
X86275334Y-152918184D01*
X85831803Y-153331201D01*
X85394033Y-153739735D01*
X84989723Y-154117872D01*
X84646571Y-154439697D01*
X84392277Y-154679296D01*
X84342015Y-154726936D01*
X83978133Y-155120020D01*
X83685207Y-155530300D01*
X83484795Y-155921787D01*
X83398455Y-156258491D01*
X83396667Y-156305164D01*
X81796467Y-156305164D01*
X81030362Y-155653924D01*
X80048522Y-154607912D01*
G37*
G36*
X121391061Y-142541190D02*
G01*
X121507367Y-142239485D01*
X121850697Y-141682754D01*
X122300090Y-141246089D01*
X122833147Y-140940200D01*
X123427466Y-140775794D01*
X124060647Y-140763582D01*
X124448547Y-140833418D01*
X125074289Y-141067363D01*
X125583755Y-141422508D01*
X125986266Y-141906811D01*
X126216158Y-142342424D01*
X126360109Y-142872847D01*
X126370025Y-143450152D01*
X126256568Y-144033265D01*
X126030403Y-144581113D01*
X125702190Y-145052622D01*
X125451118Y-145289399D01*
X124954552Y-145584209D01*
X124376996Y-145772812D01*
X123777488Y-145841266D01*
X123303771Y-145796484D01*
X122709321Y-145592126D01*
X122201479Y-145260360D01*
X121792522Y-144825495D01*
X121494725Y-144311837D01*
X121320365Y-143743695D01*
X121292130Y-143306564D01*
X122343334Y-143306564D01*
X122412453Y-143848184D01*
X122607835Y-144296217D01*
X122911516Y-144636314D01*
X123305531Y-144854126D01*
X123771915Y-144935304D01*
X124292705Y-144865498D01*
X124294422Y-144865022D01*
X124602084Y-144712936D01*
X124903612Y-144455535D01*
X125140268Y-144148461D01*
X125216807Y-143991321D01*
X125301040Y-143591531D01*
X125299770Y-143127553D01*
X125218221Y-142678175D01*
X125111702Y-142405948D01*
X124831249Y-142040712D01*
X124460856Y-141793909D01*
X124036153Y-141670370D01*
X123592772Y-141674929D01*
X123166345Y-141812417D01*
X122792503Y-142087665D01*
X122789271Y-142091005D01*
X122540763Y-142403729D01*
X122400271Y-142739152D01*
X122346037Y-143156585D01*
X122343334Y-143306564D01*
X121292130Y-143306564D01*
X121281718Y-143145377D01*
X121391061Y-142541190D01*
G37*
G36*
X102079485Y-146392863D02*
G01*
X102332967Y-146408239D01*
X102472963Y-146438971D01*
X102527327Y-146489237D01*
X102531334Y-146515667D01*
X102499431Y-146580829D01*
X102383678Y-146619936D01*
X102154008Y-146638624D01*
X101854000Y-146642667D01*
X101176667Y-146642667D01*
X101176667Y-147820581D01*
X101790500Y-147845457D01*
X102122408Y-147866855D01*
X102314437Y-147902520D01*
X102395899Y-147959705D01*
X102404334Y-147997333D01*
X102365924Y-148067560D01*
X102231154Y-148112752D01*
X101970715Y-148140161D01*
X101790500Y-148149209D01*
X101176667Y-148174085D01*
X101176667Y-149267333D01*
X101720075Y-149267333D01*
X102115721Y-149278695D01*
X102366969Y-149317076D01*
X102497498Y-149388918D01*
X102531334Y-149488058D01*
X102495951Y-149543902D01*
X102372673Y-149579768D01*
X102135798Y-149599236D01*
X101759630Y-149605886D01*
X101684667Y-149606000D01*
X100838000Y-149606000D01*
X100838000Y-146388667D01*
X101684667Y-146388667D01*
X102079485Y-146392863D01*
G37*
G36*
X96266000Y-136863667D02*
G01*
X96223667Y-136906000D01*
X96181334Y-136863667D01*
X96223667Y-136821333D01*
X96266000Y-136863667D01*
G37*
G36*
X130765512Y-142657103D02*
G01*
X130981062Y-142100719D01*
X131340762Y-141588032D01*
X131419517Y-141504086D01*
X131889924Y-141119882D01*
X132417525Y-140880862D01*
X133028549Y-140776598D01*
X133265334Y-140770006D01*
X133933835Y-140845995D01*
X134516868Y-141067919D01*
X135010771Y-141433486D01*
X135411883Y-141940403D01*
X135556353Y-142204193D01*
X135689746Y-142609223D01*
X135756942Y-143100648D01*
X135756206Y-143611767D01*
X135685803Y-144075877D01*
X135610889Y-144300634D01*
X135291270Y-144830879D01*
X134852292Y-145265970D01*
X134323996Y-145590460D01*
X133736425Y-145788902D01*
X133119621Y-145845848D01*
X132701771Y-145796484D01*
X132105304Y-145593825D01*
X131603728Y-145269963D01*
X131204080Y-144848455D01*
X130913397Y-144352858D01*
X130738717Y-143806729D01*
X130690292Y-143269312D01*
X131749469Y-143269312D01*
X131796832Y-143731247D01*
X131945996Y-144159314D01*
X132191794Y-144521030D01*
X132529056Y-144783911D01*
X132725101Y-144866471D01*
X133082412Y-144917554D01*
X133497881Y-144886351D01*
X133888091Y-144783474D01*
X134069497Y-144695438D01*
X134364747Y-144419749D01*
X134574178Y-144034812D01*
X134689888Y-143581720D01*
X134703977Y-143101565D01*
X134608542Y-142635440D01*
X134509702Y-142405948D01*
X134234638Y-142050331D01*
X133866441Y-141804290D01*
X133443114Y-141674625D01*
X133002659Y-141668137D01*
X132583082Y-141791627D01*
X132269870Y-142005145D01*
X131980820Y-142373777D01*
X131809076Y-142805994D01*
X131749469Y-143269312D01*
X130690292Y-143269312D01*
X130687076Y-143233625D01*
X130765512Y-142657103D01*
G37*
G36*
X114868262Y-146396024D02*
G01*
X114911051Y-146433010D01*
X114940895Y-146521992D01*
X114960119Y-146685338D01*
X114971046Y-146945416D01*
X114976000Y-147324596D01*
X114977305Y-147845244D01*
X114977334Y-147997333D01*
X114975248Y-148638062D01*
X114961980Y-149114186D01*
X114927011Y-149428603D01*
X114859822Y-149584210D01*
X114749895Y-149583903D01*
X114586710Y-149430579D01*
X114359750Y-149127135D01*
X114058496Y-148676467D01*
X113823730Y-148315025D01*
X112987667Y-147024049D01*
X112964295Y-148315025D01*
X112954165Y-148808074D01*
X112942092Y-149156699D01*
X112924402Y-149385803D01*
X112897421Y-149520286D01*
X112857474Y-149585048D01*
X112800886Y-149604993D01*
X112773795Y-149606000D01*
X112715738Y-149598642D01*
X112672949Y-149561656D01*
X112643105Y-149472675D01*
X112623882Y-149309329D01*
X112612955Y-149049250D01*
X112608001Y-148670071D01*
X112606695Y-148149422D01*
X112606667Y-147997333D01*
X112608833Y-147355219D01*
X112622318Y-146877970D01*
X112657602Y-146562667D01*
X112725166Y-146406393D01*
X112835489Y-146406230D01*
X112999051Y-146559259D01*
X113226334Y-146862561D01*
X113527816Y-147313220D01*
X113763060Y-147675335D01*
X114596334Y-148962003D01*
X114619705Y-147675335D01*
X114629856Y-147183230D01*
X114641965Y-146835508D01*
X114659728Y-146607227D01*
X114686835Y-146473445D01*
X114726981Y-146409219D01*
X114783858Y-146389609D01*
X114810205Y-146388667D01*
X114868262Y-146396024D01*
G37*
G36*
X110410231Y-146448028D02*
G01*
X110817296Y-146630905D01*
X111113839Y-146916841D01*
X111272930Y-147138509D01*
X111324102Y-147260715D01*
X111270712Y-147311637D01*
X111161867Y-147320000D01*
X110995960Y-147258417D01*
X110809421Y-147106402D01*
X110774628Y-147067529D01*
X110459068Y-146799476D01*
X110109261Y-146675087D01*
X109749813Y-146679251D01*
X109405331Y-146796855D01*
X109100420Y-147012788D01*
X108859687Y-147311938D01*
X108707738Y-147679192D01*
X108669181Y-148099439D01*
X108703379Y-148339584D01*
X108866985Y-148744915D01*
X109131795Y-149046485D01*
X109465933Y-149239600D01*
X109837522Y-149319568D01*
X110214682Y-149281696D01*
X110565538Y-149121291D01*
X110858212Y-148833662D01*
X110957358Y-148671395D01*
X111063757Y-148440553D01*
X111081357Y-148293052D01*
X110990039Y-148210500D01*
X110769686Y-148174503D01*
X110405334Y-148166667D01*
X110057800Y-148160685D01*
X109849232Y-148138981D01*
X109749563Y-148095918D01*
X109728000Y-148039667D01*
X109755255Y-147981671D01*
X109855242Y-147943944D01*
X110055298Y-147922579D01*
X110382758Y-147913672D01*
X110617000Y-147912667D01*
X110981669Y-147918294D01*
X111273472Y-147933513D01*
X111457543Y-147955827D01*
X111503930Y-147976167D01*
X111461684Y-148240865D01*
X111366714Y-148565739D01*
X111246444Y-148867669D01*
X111156922Y-149027954D01*
X110857098Y-149313692D01*
X110456565Y-149508525D01*
X110003371Y-149602450D01*
X109545564Y-149585466D01*
X109134013Y-149449073D01*
X108905339Y-149282302D01*
X108670483Y-149043408D01*
X108585000Y-148933780D01*
X108442893Y-148710001D01*
X108365967Y-148503179D01*
X108335223Y-148243842D01*
X108331000Y-148005023D01*
X108343182Y-147660392D01*
X108391623Y-147413430D01*
X108494167Y-147193479D01*
X108563928Y-147082656D01*
X108905140Y-146712381D01*
X109340651Y-146477999D01*
X109851870Y-146389193D01*
X109896680Y-146388667D01*
X110410231Y-146448028D01*
G37*
G36*
X102531334Y-145796000D02*
G01*
X101519153Y-145796000D01*
X101496077Y-144274727D01*
X101473000Y-142753454D01*
X100848401Y-144274727D01*
X100223801Y-145796000D01*
X99832401Y-145795873D01*
X99441000Y-145795746D01*
X98806000Y-144250706D01*
X98171000Y-142705667D01*
X98147924Y-144250833D01*
X98124847Y-145796000D01*
X97112667Y-145796000D01*
X97112667Y-140800667D01*
X98260881Y-140800667D01*
X99017667Y-142578667D01*
X99236066Y-143086785D01*
X99434201Y-143538295D01*
X99602123Y-143911289D01*
X99729882Y-144183863D01*
X99807530Y-144334108D01*
X99825189Y-144356667D01*
X99871735Y-144282381D01*
X99974288Y-144074180D01*
X100122750Y-143754046D01*
X100307026Y-143343960D01*
X100517019Y-142865904D01*
X100632130Y-142599833D01*
X101388334Y-140843000D01*
X102531334Y-140792930D01*
X102531334Y-145796000D01*
G37*
D12*
%TO.C,U4*%
X66144000Y-131286000D02*
X89144000Y-131286000D01*
X89144000Y-103286000D02*
X89144000Y-131286000D01*
X66144000Y-103286000D02*
X89144000Y-103286000D01*
X66144000Y-103286000D02*
X66144000Y-131286000D01*
D11*
%TO.C,1k5*%
X86390141Y-94480994D02*
X84550141Y-94480994D01*
X84550141Y-98320994D02*
X86390141Y-98320994D01*
X86390141Y-98320994D02*
X86390141Y-94480994D01*
X85470141Y-93530994D02*
X85470141Y-94480994D01*
X85470141Y-99270994D02*
X85470141Y-98320994D01*
X84550141Y-94480994D02*
X84550141Y-98320994D01*
%TO.C,B2*%
X81275147Y-30226000D02*
G75*
G03*
X81275147Y-30226000I-6100000J0D01*
G01*
%TD*%
M02*
