%TF.GenerationSoftware,KiCad,Pcbnew,(6.0.7)*%
%TF.CreationDate,2022-10-02T12:09:57-05:00*%
%TF.ProjectId,PidflightLapV2,50696466-6c69-4676-9874-4c617056322e,1.0*%
%TF.SameCoordinates,Original*%
%TF.FileFunction,Soldermask,Top*%
%TF.FilePolarity,Negative*%
%FSLAX46Y46*%
G04 Gerber Fmt 4.6, Leading zero omitted, Abs format (unit mm)*
G04 Created by KiCad (PCBNEW (6.0.7)) date 2022-10-02 12:09:57*
%MOMM*%
%LPD*%
G01*
G04 APERTURE LIST*
G04 Aperture macros list*
%AMRoundRect*
0 Rectangle with rounded corners*
0 $1 Rounding radius*
0 $2 $3 $4 $5 $6 $7 $8 $9 X,Y pos of 4 corners*
0 Add a 4 corners polygon primitive as box body*
4,1,4,$2,$3,$4,$5,$6,$7,$8,$9,$2,$3,0*
0 Add four circle primitives for the rounded corners*
1,1,$1+$1,$2,$3*
1,1,$1+$1,$4,$5*
1,1,$1+$1,$6,$7*
1,1,$1+$1,$8,$9*
0 Add four rect primitives between the rounded corners*
20,1,$1+$1,$2,$3,$4,$5,0*
20,1,$1+$1,$4,$5,$6,$7,0*
20,1,$1+$1,$6,$7,$8,$9,0*
20,1,$1+$1,$8,$9,$2,$3,0*%
G04 Aperture macros list end*
%ADD10R,1.980000X3.960000*%
%ADD11O,1.980000X3.960000*%
%ADD12C,3.200000*%
%ADD13R,1.600000X1.600000*%
%ADD14O,1.600000X1.600000*%
%ADD15C,1.400000*%
%ADD16O,1.400000X1.400000*%
%ADD17RoundRect,0.500000X0.500000X-1.000000X0.500000X1.000000X-0.500000X1.000000X-0.500000X-1.000000X0*%
%ADD18R,2.000000X2.000000*%
%ADD19C,2.000000*%
%ADD20R,1.700000X1.700000*%
%ADD21O,1.700000X1.700000*%
G04 APERTURE END LIST*
D10*
%TO.C,BT1*%
X141164000Y-153448500D03*
D11*
X136164000Y-153448500D03*
%TD*%
D12*
%TO.C,REF\u002A\u002A*%
X159004000Y-159766000D03*
%TD*%
D13*
%TO.C,U9*%
X142494000Y-44196000D03*
D14*
X142494000Y-46736000D03*
X142494000Y-49276000D03*
X142494000Y-51816000D03*
X142494000Y-54356000D03*
X142494000Y-56896000D03*
X142494000Y-59436000D03*
X142494000Y-61976000D03*
X142494000Y-64516000D03*
X142494000Y-67056000D03*
X142494000Y-69596000D03*
X142494000Y-72136000D03*
X142494000Y-74676000D03*
X142494000Y-77216000D03*
X142494000Y-79756000D03*
X157734000Y-79756000D03*
X157734000Y-77216000D03*
X157734000Y-74676000D03*
X157734000Y-72136000D03*
X157734000Y-69596000D03*
X157734000Y-67056000D03*
X157734000Y-64516000D03*
X157734000Y-61976000D03*
X157734000Y-59436000D03*
X157734000Y-56896000D03*
X157734000Y-54356000D03*
X157734000Y-51816000D03*
X157734000Y-49276000D03*
X157734000Y-46736000D03*
X157734000Y-44196000D03*
%TD*%
D15*
%TO.C,1k2*%
X48758496Y-92588363D03*
D16*
X48754000Y-100208363D03*
%TD*%
D13*
%TO.C,U5*%
X67574000Y-44196000D03*
D14*
X67574000Y-46736000D03*
X67574000Y-49276000D03*
X67574000Y-51816000D03*
X67574000Y-54356000D03*
X67574000Y-56896000D03*
X67574000Y-59436000D03*
X67574000Y-61976000D03*
X67574000Y-64516000D03*
X67574000Y-67056000D03*
X67574000Y-69596000D03*
X67574000Y-72136000D03*
X67574000Y-74676000D03*
X67574000Y-77216000D03*
X67574000Y-79756000D03*
X82814000Y-79756000D03*
X82814000Y-77216000D03*
X82814000Y-74676000D03*
X82814000Y-72136000D03*
X82814000Y-69596000D03*
X82814000Y-67056000D03*
X82814000Y-64516000D03*
X82814000Y-61976000D03*
X82814000Y-59436000D03*
X82814000Y-56896000D03*
X82814000Y-54356000D03*
X82814000Y-51816000D03*
X82814000Y-49276000D03*
X82814000Y-46736000D03*
X82814000Y-44196000D03*
%TD*%
D17*
%TO.C,SW1*%
X104394000Y-153416000D03*
X114554000Y-153416000D03*
%TD*%
D15*
%TO.C,1k4*%
X82930141Y-92590994D03*
D16*
X82930141Y-100210994D03*
%TD*%
D17*
%TO.C,U6*%
X105664000Y-103886000D03*
X108204000Y-103886000D03*
X110744000Y-103886000D03*
X113284000Y-103886000D03*
X115824000Y-103886000D03*
X118364000Y-103886000D03*
X120904000Y-103886000D03*
X123444000Y-103886000D03*
X125984000Y-103886000D03*
X125984000Y-130686000D03*
X123444000Y-130686000D03*
X120904000Y-130686000D03*
%TD*%
D18*
%TO.C,B4*%
X136144000Y-26426000D03*
D19*
X136144000Y-34026000D03*
%TD*%
D18*
%TO.C,B3*%
X113284000Y-26426000D03*
D19*
X113284000Y-34026000D03*
%TD*%
D15*
%TO.C,1k12*%
X161778630Y-92456000D03*
D16*
X161778630Y-100076000D03*
%TD*%
D15*
%TO.C,1k11*%
X159238630Y-92456000D03*
D16*
X159238630Y-100076000D03*
%TD*%
D12*
%TO.C,REF\u002A\u002A*%
X29464000Y-30226000D03*
%TD*%
D15*
%TO.C,1k8*%
X123444000Y-92456000D03*
D16*
X123444000Y-100076000D03*
%TD*%
D13*
%TO.C,U7*%
X105664000Y-44196000D03*
D14*
X105664000Y-46736000D03*
X105664000Y-49276000D03*
X105664000Y-51816000D03*
X105664000Y-54356000D03*
X105664000Y-56896000D03*
X105664000Y-59436000D03*
X105664000Y-61976000D03*
X105664000Y-64516000D03*
X105664000Y-67056000D03*
X105664000Y-69596000D03*
X105664000Y-72136000D03*
X105664000Y-74676000D03*
X105664000Y-77216000D03*
X105664000Y-79756000D03*
X120904000Y-79756000D03*
X120904000Y-77216000D03*
X120904000Y-74676000D03*
X120904000Y-72136000D03*
X120904000Y-69596000D03*
X120904000Y-67056000D03*
X120904000Y-64516000D03*
X120904000Y-61976000D03*
X120904000Y-59436000D03*
X120904000Y-56896000D03*
X120904000Y-54356000D03*
X120904000Y-51816000D03*
X120904000Y-49276000D03*
X120904000Y-46736000D03*
X120904000Y-44196000D03*
%TD*%
D15*
%TO.C,1k1*%
X46218496Y-92588363D03*
D16*
X46214000Y-100208363D03*
%TD*%
D12*
%TO.C,REF\u002A\u002A*%
X29464000Y-159766000D03*
%TD*%
D17*
%TO.C,U2*%
X30974000Y-103886000D03*
X33514000Y-103886000D03*
X36054000Y-103886000D03*
X38594000Y-103886000D03*
X41134000Y-103886000D03*
X43674000Y-103886000D03*
X46214000Y-103886000D03*
X48754000Y-103886000D03*
X51294000Y-103886000D03*
X51294000Y-130686000D03*
X48754000Y-130686000D03*
X46214000Y-130686000D03*
%TD*%
D15*
%TO.C,1k7*%
X120904000Y-92456000D03*
D16*
X120904000Y-100076000D03*
%TD*%
D20*
%TO.C,U1*%
X66389000Y-136793500D03*
D21*
X66389000Y-139333500D03*
X66389000Y-141873500D03*
X66389000Y-144413500D03*
X66389000Y-146953500D03*
X66389000Y-149493500D03*
%TD*%
D13*
%TO.C,U3*%
X29464000Y-44196000D03*
D14*
X29464000Y-46736000D03*
X29464000Y-49276000D03*
X29464000Y-51816000D03*
X29464000Y-54356000D03*
X29464000Y-56896000D03*
X29464000Y-59436000D03*
X29464000Y-61976000D03*
X29464000Y-64516000D03*
X29464000Y-67056000D03*
X29464000Y-69596000D03*
X29464000Y-72136000D03*
X29464000Y-74676000D03*
X29464000Y-77216000D03*
X29464000Y-79756000D03*
X44704000Y-79756000D03*
X44704000Y-77216000D03*
X44704000Y-74676000D03*
X44704000Y-72136000D03*
X44704000Y-69596000D03*
X44704000Y-67056000D03*
X44704000Y-64516000D03*
X44704000Y-61976000D03*
X44704000Y-59436000D03*
X44704000Y-56896000D03*
X44704000Y-54356000D03*
X44704000Y-51816000D03*
X44704000Y-49276000D03*
X44704000Y-46736000D03*
X44704000Y-44196000D03*
%TD*%
D15*
%TO.C,1k10*%
X156698630Y-92456000D03*
D16*
X156698630Y-100076000D03*
%TD*%
D15*
%TO.C,1k3*%
X51298496Y-92588363D03*
D16*
X51294000Y-100208363D03*
%TD*%
D17*
%TO.C,U8*%
X141464000Y-103886000D03*
X144004000Y-103886000D03*
X146544000Y-103886000D03*
X149084000Y-103886000D03*
X151624000Y-103886000D03*
X154164000Y-103886000D03*
X156704000Y-103886000D03*
X159244000Y-103886000D03*
X161784000Y-103886000D03*
X161784000Y-130686000D03*
X159244000Y-130686000D03*
X156704000Y-130686000D03*
%TD*%
D18*
%TO.C,B1*%
X44704000Y-26416000D03*
D19*
X44704000Y-34016000D03*
%TD*%
D15*
%TO.C,1k6*%
X88010141Y-92590994D03*
D16*
X88010141Y-100210994D03*
%TD*%
D15*
%TO.C,1k9*%
X125984000Y-92456000D03*
D16*
X125984000Y-100076000D03*
%TD*%
D17*
%TO.C,U4*%
X67724000Y-103886000D03*
X70264000Y-103886000D03*
X72804000Y-103886000D03*
X75344000Y-103886000D03*
X77884000Y-103886000D03*
X80424000Y-103886000D03*
X82964000Y-103886000D03*
X85504000Y-103886000D03*
X88044000Y-103886000D03*
X88044000Y-130686000D03*
X85504000Y-130686000D03*
X82964000Y-130686000D03*
%TD*%
D12*
%TO.C,REF\u002A\u002A*%
X159004000Y-30226000D03*
%TD*%
D15*
%TO.C,1k5*%
X85470141Y-92590994D03*
D16*
X85470141Y-100210994D03*
%TD*%
D18*
%TO.C,B2*%
X75175147Y-26426000D03*
D19*
X75175147Y-34026000D03*
%TD*%
M02*
