M48
; DRILL file {KiCad (6.0.7)} date Sun Oct  2 12:09:54 2022
; FORMAT={-:-/ absolute / inch / decimal}
; #@! TF.CreationDate,2022-10-02T12:09:54-05:00
; #@! TF.GenerationSoftware,Kicad,Pcbnew,(6.0.7)
; #@! TF.FileFunction,Plated,1,2,PTH
FMAT,2
INCH
; #@! TA.AperFunction,Plated,PTH,ViaDrill
T1C0.0157
; #@! TA.AperFunction,Plated,PTH,ComponentDrill
T2C0.0276
; #@! TA.AperFunction,Plated,PTH,ComponentDrill
T3C0.0394
; #@! TA.AperFunction,Plated,PTH,ComponentDrill
T4C0.0520
%
G90
G05
T1
X3.71Y-5.29
X3.71Y-5.79
T2
X1.8194Y-3.9452
X1.8196Y-3.6452
X1.9194Y-3.9452
X1.9196Y-3.6452
X2.0194Y-3.9452
X2.0196Y-3.6452
X3.265Y-3.6453
X3.265Y-3.9453
X3.365Y-3.6453
X3.365Y-3.9453
X3.465Y-3.6453
X3.465Y-3.9453
X4.76Y-3.64
X4.76Y-3.94
X4.86Y-3.64
X4.86Y-3.94
X4.96Y-3.64
X4.96Y-3.94
X6.1692Y-3.64
X6.1692Y-3.94
X6.2692Y-3.64
X6.2692Y-3.94
X6.3692Y-3.64
X6.3692Y-3.94
T3
X1.16Y-1.74
X1.16Y-1.84
X1.16Y-1.94
X1.16Y-2.04
X1.16Y-2.14
X1.16Y-2.24
X1.16Y-2.34
X1.16Y-2.44
X1.16Y-2.54
X1.16Y-2.64
X1.16Y-2.74
X1.16Y-2.84
X1.16Y-2.94
X1.16Y-3.04
X1.16Y-3.14
X1.76Y-1.04
X1.76Y-1.3392
X1.76Y-1.74
X1.76Y-1.84
X1.76Y-1.94
X1.76Y-2.04
X1.76Y-2.14
X1.76Y-2.24
X1.76Y-2.34
X1.76Y-2.44
X1.76Y-2.54
X1.76Y-2.64
X1.76Y-2.74
X1.76Y-2.84
X1.76Y-2.94
X1.76Y-3.04
X1.76Y-3.14
X2.6137Y-5.3856
X2.6137Y-5.4856
X2.6137Y-5.5856
X2.6137Y-5.6856
X2.6137Y-5.7856
X2.6137Y-5.8856
X2.6604Y-1.74
X2.6604Y-1.84
X2.6604Y-1.94
X2.6604Y-2.04
X2.6604Y-2.14
X2.6604Y-2.24
X2.6604Y-2.34
X2.6604Y-2.44
X2.6604Y-2.54
X2.6604Y-2.64
X2.6604Y-2.74
X2.6604Y-2.84
X2.6604Y-2.94
X2.6604Y-3.04
X2.6604Y-3.14
X2.9597Y-1.0404
X2.9597Y-1.3396
X3.2604Y-1.74
X3.2604Y-1.84
X3.2604Y-1.94
X3.2604Y-2.04
X3.2604Y-2.14
X3.2604Y-2.24
X3.2604Y-2.34
X3.2604Y-2.44
X3.2604Y-2.54
X3.2604Y-2.64
X3.2604Y-2.74
X3.2604Y-2.84
X3.2604Y-2.94
X3.2604Y-3.04
X3.2604Y-3.14
X4.16Y-1.74
X4.16Y-1.84
X4.16Y-1.94
X4.16Y-2.04
X4.16Y-2.14
X4.16Y-2.24
X4.16Y-2.34
X4.16Y-2.44
X4.16Y-2.54
X4.16Y-2.64
X4.16Y-2.74
X4.16Y-2.84
X4.16Y-2.94
X4.16Y-3.04
X4.16Y-3.14
X4.46Y-1.0404
X4.46Y-1.3396
X4.76Y-1.74
X4.76Y-1.84
X4.76Y-1.94
X4.76Y-2.04
X4.76Y-2.14
X4.76Y-2.24
X4.76Y-2.34
X4.76Y-2.44
X4.76Y-2.54
X4.76Y-2.64
X4.76Y-2.74
X4.76Y-2.84
X4.76Y-2.94
X4.76Y-3.04
X4.76Y-3.14
X5.36Y-1.0404
X5.36Y-1.3396
X5.61Y-1.74
X5.61Y-1.84
X5.61Y-1.94
X5.61Y-2.04
X5.61Y-2.14
X5.61Y-2.24
X5.61Y-2.34
X5.61Y-2.44
X5.61Y-2.54
X5.61Y-2.64
X5.61Y-2.74
X5.61Y-2.84
X5.61Y-2.94
X5.61Y-3.04
X5.61Y-3.14
X6.21Y-1.74
X6.21Y-1.84
X6.21Y-1.94
X6.21Y-2.04
X6.21Y-2.14
X6.21Y-2.24
X6.21Y-2.34
X6.21Y-2.44
X6.21Y-2.54
X6.21Y-2.64
X6.21Y-2.74
X6.21Y-2.84
X6.21Y-2.94
X6.21Y-3.04
X6.21Y-3.14
T4
X5.3608Y-6.0413
X5.5576Y-6.0413
T0
M30
